G04 Layer_Color=255*
%FSLAX25Y25*%
%MOIN*%
G70*
G01*
G75*
%ADD12R,0.03740X0.03937*%
%ADD13R,0.03937X0.19685*%
G04:AMPARAMS|DCode=14|XSize=15.75mil|YSize=33.47mil|CornerRadius=1.97mil|HoleSize=0mil|Usage=FLASHONLY|Rotation=270.000|XOffset=0mil|YOffset=0mil|HoleType=Round|Shape=RoundedRectangle|*
%AMROUNDEDRECTD14*
21,1,0.01575,0.02953,0,0,270.0*
21,1,0.01181,0.03347,0,0,270.0*
1,1,0.00394,-0.01476,-0.00591*
1,1,0.00394,-0.01476,0.00591*
1,1,0.00394,0.01476,0.00591*
1,1,0.00394,0.01476,-0.00591*
%
%ADD14ROUNDEDRECTD14*%
%ADD15R,0.04528X0.14173*%
%ADD16R,0.07874X0.07874*%
%ADD17R,0.05512X0.04134*%
%ADD18R,0.03937X0.03740*%
G04:AMPARAMS|DCode=19|XSize=23.62mil|YSize=39.37mil|CornerRadius=2.01mil|HoleSize=0mil|Usage=FLASHONLY|Rotation=270.000|XOffset=0mil|YOffset=0mil|HoleType=Round|Shape=RoundedRectangle|*
%AMROUNDEDRECTD19*
21,1,0.02362,0.03535,0,0,270.0*
21,1,0.01961,0.03937,0,0,270.0*
1,1,0.00402,-0.01768,-0.00980*
1,1,0.00402,-0.01768,0.00980*
1,1,0.00402,0.01768,0.00980*
1,1,0.00402,0.01768,-0.00980*
%
%ADD19ROUNDEDRECTD19*%
%ADD20O,0.01181X0.11811*%
%ADD21O,0.03937X0.07087*%
%ADD22O,0.07500X0.02500*%
%ADD23R,0.03543X0.03937*%
%ADD24O,0.05118X0.01181*%
%ADD25R,0.47244X0.11811*%
%ADD26C,0.05905*%
%ADD34C,0.03937*%
%ADD35C,0.19685*%
%ADD36C,0.05512*%
D12*
X752756Y57480D02*
D03*
Y51181D02*
D03*
X744882Y57480D02*
D03*
Y51181D02*
D03*
D13*
X896457Y139370D02*
D03*
X922441D02*
D03*
D14*
X818799Y65354D02*
D03*
Y70472D02*
D03*
X827658D02*
D03*
Y67913D02*
D03*
Y65354D02*
D03*
X818799Y101772D02*
D03*
Y106890D02*
D03*
X827658D02*
D03*
Y104331D02*
D03*
Y101772D02*
D03*
D15*
X817126Y52953D02*
D03*
X828740D02*
D03*
X817126Y89370D02*
D03*
X828740D02*
D03*
X191142Y55512D02*
D03*
X179528D02*
D03*
D16*
X852362Y55315D02*
D03*
X836614D02*
D03*
X852362Y91732D02*
D03*
X836614D02*
D03*
D17*
X848032Y64567D02*
D03*
Y72047D02*
D03*
X840945Y64567D02*
D03*
Y72047D02*
D03*
X802362Y64567D02*
D03*
Y72047D02*
D03*
X809449Y64567D02*
D03*
Y72047D02*
D03*
X855118Y64567D02*
D03*
Y72047D02*
D03*
X855118Y100984D02*
D03*
Y108465D02*
D03*
X809449Y100984D02*
D03*
Y108465D02*
D03*
X802362Y100984D02*
D03*
Y108465D02*
D03*
X840945Y100984D02*
D03*
Y108465D02*
D03*
X848032Y100984D02*
D03*
Y108465D02*
D03*
X712992Y63976D02*
D03*
Y56496D02*
D03*
X705118Y63976D02*
D03*
Y56496D02*
D03*
X705118Y79921D02*
D03*
Y72441D02*
D03*
X151969Y55315D02*
D03*
Y47835D02*
D03*
X206693Y54134D02*
D03*
Y61614D02*
D03*
X199213Y54134D02*
D03*
Y61614D02*
D03*
X114961Y57874D02*
D03*
Y50394D02*
D03*
D18*
X179134Y26378D02*
D03*
X172835D02*
D03*
X166142D02*
D03*
X159843D02*
D03*
X166142Y40157D02*
D03*
X159843D02*
D03*
X179134D02*
D03*
X172835D02*
D03*
D19*
X170768Y46654D02*
D03*
X170768Y50394D02*
D03*
X170768Y54134D02*
D03*
X159941D02*
D03*
Y46654D02*
D03*
D20*
X918307Y141732D02*
D03*
X916339D02*
D03*
X914370D02*
D03*
X912402D02*
D03*
X910433D02*
D03*
X908465D02*
D03*
X906496D02*
D03*
X904527D02*
D03*
X902559D02*
D03*
X900591D02*
D03*
D21*
X64488Y62205D02*
D03*
X74331D02*
D03*
X88110D02*
D03*
X99134Y62205D02*
D03*
X70472Y16535D02*
D03*
X62598D02*
D03*
D22*
X32685Y7346D02*
D03*
D23*
X41339Y7480D02*
D03*
X47638D02*
D03*
D24*
X671850Y60039D02*
D03*
Y62008D02*
D03*
Y63976D02*
D03*
Y65945D02*
D03*
Y67913D02*
D03*
Y69882D02*
D03*
Y71850D02*
D03*
Y73819D02*
D03*
Y75787D02*
D03*
Y77756D02*
D03*
Y79724D02*
D03*
Y81693D02*
D03*
Y83661D02*
D03*
Y85630D02*
D03*
Y87598D02*
D03*
Y89567D02*
D03*
Y91535D02*
D03*
Y93504D02*
D03*
Y95472D02*
D03*
Y97441D02*
D03*
Y99410D02*
D03*
Y101378D02*
D03*
Y103347D02*
D03*
Y105315D02*
D03*
Y107283D02*
D03*
Y109252D02*
D03*
Y111221D02*
D03*
Y113189D02*
D03*
Y115157D02*
D03*
Y117126D02*
D03*
Y119095D02*
D03*
Y121063D02*
D03*
Y123031D02*
D03*
Y125000D02*
D03*
Y126969D02*
D03*
Y128937D02*
D03*
Y130905D02*
D03*
Y132874D02*
D03*
Y134843D02*
D03*
Y136811D02*
D03*
D25*
X669291Y51575D02*
D03*
Y145276D02*
D03*
D26*
X131378Y91457D02*
D03*
Y101457D02*
D03*
X141378Y91457D02*
D03*
Y101457D02*
D03*
X151378Y91457D02*
D03*
Y101457D02*
D03*
X161378Y91457D02*
D03*
Y101457D02*
D03*
X171378Y91457D02*
D03*
Y101457D02*
D03*
X181378Y91457D02*
D03*
Y101457D02*
D03*
X191378Y91457D02*
D03*
Y101457D02*
D03*
X201378Y91457D02*
D03*
Y101457D02*
D03*
X211378Y91457D02*
D03*
Y101457D02*
D03*
X221378Y91457D02*
D03*
Y101457D02*
D03*
X231378Y91457D02*
D03*
Y101457D02*
D03*
X241378Y91457D02*
D03*
Y101457D02*
D03*
X251378Y91457D02*
D03*
Y101457D02*
D03*
X261378Y91457D02*
D03*
Y101457D02*
D03*
X271378Y91457D02*
D03*
Y101457D02*
D03*
X281378Y91457D02*
D03*
Y101457D02*
D03*
X291378Y91457D02*
D03*
Y101457D02*
D03*
X301378Y91457D02*
D03*
Y101457D02*
D03*
X311378Y91457D02*
D03*
Y101457D02*
D03*
X321378Y91457D02*
D03*
Y101457D02*
D03*
D34*
X80709Y177165D02*
D03*
Y157480D02*
D03*
X872047D02*
D03*
Y177165D02*
D03*
X112205Y187008D02*
D03*
Y96457D02*
D03*
X340551D02*
D03*
Y187008D02*
D03*
D35*
X952756Y73543D02*
D03*
X0D02*
D03*
X496063Y207874D02*
D03*
D36*
X187795Y190945D02*
D03*
X194882D02*
D03*
M02*
