G04 Layer_Color=65535*
%FSLAX25Y25*%
%MOIN*%
G70*
G01*
G75*
%ADD29C,0.00787*%
%ADD39C,0.01000*%
%ADD40C,0.00700*%
%ADD41R,0.02000X0.12400*%
D29*
X822638Y63583D02*
Y72244D01*
X823819Y63583D02*
Y72244D01*
X822638D02*
X823819D01*
X822638Y63583D02*
X823819Y63583D01*
X814665Y44685D02*
X831201D01*
X814665Y61221D02*
X831201D01*
X845669Y68110D02*
Y68504D01*
X850394Y68110D02*
Y68504D01*
X838583Y68110D02*
Y68504D01*
X843307Y68110D02*
Y68504D01*
X800000Y68110D02*
Y68504D01*
X804724Y68110D02*
Y68504D01*
X807087Y68110D02*
Y68504D01*
X811811Y68110D02*
Y68504D01*
X852756Y68110D02*
Y68504D01*
X857480Y68110D02*
Y68504D01*
X852756Y104528D02*
Y104921D01*
X857480Y104527D02*
Y104921D01*
X807087Y104527D02*
Y104921D01*
X811811Y104527D02*
Y104921D01*
X800000Y104527D02*
Y104921D01*
X804724Y104527D02*
Y104921D01*
X838583Y104527D02*
Y104921D01*
X843307Y104527D02*
Y104921D01*
X845669Y104527D02*
Y104921D01*
X850394Y104527D02*
Y104921D01*
X814665Y81102D02*
X831201D01*
X814665Y97638D02*
X831201D01*
X715354Y60039D02*
Y60433D01*
X710630Y60039D02*
Y60433D01*
X707480Y60039D02*
Y60433D01*
X702756Y60039D02*
Y60433D01*
X177067Y63779D02*
X193602D01*
X177067Y47244D02*
X193602D01*
X164370Y44291D02*
Y56496D01*
X166339Y44291D02*
Y56496D01*
X164370D02*
X166339D01*
X164370Y44291D02*
X166339D01*
X822638Y100000D02*
Y108661D01*
X823819Y100000D02*
Y108661D01*
X822638D02*
X823819D01*
X822638Y100000D02*
X823819Y100000D01*
X707480Y75984D02*
Y76378D01*
X702756Y75984D02*
Y76378D01*
X896457Y142913D02*
X898819D01*
X896457Y134252D02*
Y142913D01*
X920079D02*
X922441D01*
Y134252D02*
Y142913D01*
X65748Y15354D02*
X67323D01*
X53150D02*
X59449D01*
X53150D02*
Y63386D01*
X61417D01*
X67716D02*
X71260D01*
X77559D02*
X85039D01*
X91732D02*
X95669D01*
X102362D02*
X104331D01*
Y60630D02*
Y63386D01*
Y15354D02*
Y60630D01*
X73622Y15354D02*
X104331D01*
X154331Y51378D02*
Y51772D01*
X149606Y51378D02*
Y51772D01*
X204331Y57677D02*
Y58071D01*
X209055Y57677D02*
Y58071D01*
X196850Y57677D02*
Y58071D01*
X201575Y57677D02*
Y58071D01*
X44291Y5906D02*
X44685D01*
X44291Y9055D02*
X44685D01*
X670079Y49606D02*
Y56299D01*
X656693Y49606D02*
X670079D01*
X655118D02*
X656693D01*
X670079Y56299D02*
Y58268D01*
Y138583D02*
Y140551D01*
X655118Y147244D02*
X656693D01*
X670079D01*
Y140551D02*
Y147244D01*
X117323Y53937D02*
Y54331D01*
X112598Y53937D02*
Y54331D01*
D39*
X103425Y200787D02*
G03*
X98425Y195787I0J-5000D01*
G01*
Y87677D02*
G03*
X103425Y82677I5000J0D01*
G01*
X349331D02*
G03*
X354331Y87677I0J5000D01*
G01*
Y195787D02*
G03*
X349331Y200787I-5000J0D01*
G01*
X103425D02*
X297244D01*
X98425Y87677D02*
Y195787D01*
X103425Y82677D02*
X349331D01*
X354331Y87677D02*
Y195787D01*
X297244Y200787D02*
X349331D01*
X865748Y62354D02*
Y68352D01*
X868747D01*
X869747Y67352D01*
Y65353D01*
X868747Y64353D01*
X865748D01*
X867747D02*
X869747Y62354D01*
X874745D02*
X872746D01*
X871746Y63353D01*
Y65353D01*
X872746Y66352D01*
X874745D01*
X875745Y65353D01*
Y64353D01*
X871746D01*
X881743Y68352D02*
Y62354D01*
X878744D01*
X877744Y63353D01*
Y65353D01*
X878744Y66352D01*
X881743D01*
X865748Y52756D02*
Y56755D01*
X866748D01*
X867747Y55755D01*
Y52756D01*
Y55755D01*
X868747Y56755D01*
X869747Y55755D01*
Y52756D01*
X872746Y56755D02*
X874745D01*
X875745Y55755D01*
Y52756D01*
X872746D01*
X871746Y53756D01*
X872746Y54755D01*
X875745D01*
X877744Y56755D02*
X881743Y52756D01*
X879743Y54755D01*
X881743Y56755D01*
X877744Y52756D01*
X889740Y57754D02*
X890740Y58754D01*
X892739D01*
X893739Y57754D01*
Y56755D01*
X892739Y55755D01*
X891740D01*
X892739D01*
X893739Y54755D01*
Y53756D01*
X892739Y52756D01*
X890740D01*
X889740Y53756D01*
X895738Y57754D02*
X896738Y58754D01*
X898737D01*
X899737Y57754D01*
Y56755D01*
X898737Y55755D01*
X897738D01*
X898737D01*
X899737Y54755D01*
Y53756D01*
X898737Y52756D01*
X896738D01*
X895738Y53756D01*
X901736Y52756D02*
Y56755D01*
X902736D01*
X903736Y55755D01*
Y52756D01*
Y55755D01*
X904735Y56755D01*
X905735Y55755D01*
Y52756D01*
X907734D02*
Y56755D01*
X909734Y58754D01*
X911733Y56755D01*
Y52756D01*
Y55755D01*
X907734D01*
X865748Y105359D02*
Y99361D01*
X867747Y101361D01*
X869747Y99361D01*
Y105359D01*
X871746D02*
Y99361D01*
Y102360D01*
X872746Y103360D01*
X874745D01*
X875745Y102360D01*
Y99361D01*
X877744D02*
X879743D01*
X878744D01*
Y103360D01*
X877744D01*
X883742Y104360D02*
Y103360D01*
X882743D01*
X884742D01*
X883742D01*
Y100361D01*
X884742Y99361D01*
X890740D02*
X888741D01*
X887741Y100361D01*
Y102360D01*
X888741Y103360D01*
X890740D01*
X891740Y102360D01*
Y101361D01*
X887741D01*
X865748Y89764D02*
Y93762D01*
X866748D01*
X867747Y92763D01*
Y89764D01*
Y92763D01*
X868747Y93762D01*
X869747Y92763D01*
Y89764D01*
X872746Y93762D02*
X874745D01*
X875745Y92763D01*
Y89764D01*
X872746D01*
X871746Y90763D01*
X872746Y91763D01*
X875745D01*
X877744Y93762D02*
X881743Y89764D01*
X879743Y91763D01*
X881743Y93762D01*
X877744Y89764D01*
X889740Y94762D02*
X890740Y95762D01*
X892739D01*
X893739Y94762D01*
Y93762D01*
X892739Y92763D01*
X891740D01*
X892739D01*
X893739Y91763D01*
Y90763D01*
X892739Y89764D01*
X890740D01*
X889740Y90763D01*
X895738Y94762D02*
X896738Y95762D01*
X898737D01*
X899737Y94762D01*
Y90763D01*
X898737Y89764D01*
X896738D01*
X895738Y90763D01*
Y94762D01*
X901736D02*
X902736Y95762D01*
X904735D01*
X905735Y94762D01*
Y90763D01*
X904735Y89764D01*
X902736D01*
X901736Y90763D01*
Y94762D01*
X907734Y89764D02*
Y93762D01*
X908734D01*
X909734Y92763D01*
Y89764D01*
Y92763D01*
X910733Y93762D01*
X911733Y92763D01*
Y89764D01*
X913733D02*
Y93762D01*
X915732Y95762D01*
X917731Y93762D01*
Y89764D01*
Y92763D01*
X913733D01*
X367929Y147909D02*
Y146909D01*
X369929Y144910D01*
X371928Y146909D01*
Y147909D01*
X369929Y144910D02*
Y141911D01*
X374927D02*
X376926D01*
X377926Y142910D01*
Y144910D01*
X376926Y145909D01*
X374927D01*
X373927Y144910D01*
Y142910D01*
X374927Y141911D01*
X379925Y145909D02*
Y142910D01*
X380925Y141911D01*
X383924D01*
Y145909D01*
X385923D02*
Y141911D01*
Y143910D01*
X386923Y144910D01*
X387923Y145909D01*
X388922D01*
X397919Y139911D02*
Y145909D01*
X400918D01*
X401918Y144910D01*
Y142910D01*
X400918Y141911D01*
X397919D01*
X404917D02*
X406917D01*
X407916Y142910D01*
Y144910D01*
X406917Y145909D01*
X404917D01*
X403918Y144910D01*
Y142910D01*
X404917Y141911D01*
X409915Y145909D02*
Y141911D01*
Y143910D01*
X410915Y144910D01*
X411915Y145909D01*
X412915D01*
X415914Y141911D02*
Y145909D01*
X418913D01*
X419912Y144910D01*
Y141911D01*
X369929Y128314D02*
X370928D01*
X371928Y129314D01*
Y134312D01*
X368929D01*
X367929Y133313D01*
Y131313D01*
X368929Y130314D01*
X371928D01*
X374927D02*
X376926D01*
X377926Y131313D01*
Y133313D01*
X376926Y134312D01*
X374927D01*
X373927Y133313D01*
Y131313D01*
X374927Y130314D01*
X382924D02*
X380925D01*
X379925Y131313D01*
Y133313D01*
X380925Y134312D01*
X382924D01*
X383924Y133313D01*
Y132313D01*
X379925D01*
X385923Y130314D02*
X388922D01*
X389922Y131313D01*
X388922Y132313D01*
X386923D01*
X385923Y133313D01*
X386923Y134312D01*
X389922D01*
X397919Y136312D02*
Y130314D01*
Y133313D01*
X398919Y134312D01*
X400918D01*
X401918Y133313D01*
Y130314D01*
X406917D02*
X404917D01*
X403918Y131313D01*
Y133313D01*
X404917Y134312D01*
X406917D01*
X407916Y133313D01*
Y132313D01*
X403918D01*
X409915Y134312D02*
Y130314D01*
Y132313D01*
X410915Y133313D01*
X411915Y134312D01*
X412915D01*
X418913Y130314D02*
X416913D01*
X415914Y131313D01*
Y133313D01*
X416913Y134312D01*
X418913D01*
X419912Y133313D01*
Y132313D01*
X415914D01*
X370928Y118717D02*
X367929Y121716D01*
X370928Y124715D01*
X373927Y121716D02*
X377926D01*
X379925D02*
X383924D01*
X385923D02*
X389922D01*
X391921D02*
X395920D01*
X397919D02*
X401918D01*
X403918D02*
X407916D01*
X409915D02*
X413914D01*
X133465Y74502D02*
X137463D01*
X135464D01*
Y68504D01*
X139463Y74502D02*
Y68504D01*
X143461D01*
X145461Y74502D02*
Y70503D01*
X147460Y68504D01*
X149459Y70503D01*
Y74502D01*
X155457D02*
X153458Y73502D01*
X151459Y71503D01*
Y69504D01*
X152458Y68504D01*
X154458D01*
X155457Y69504D01*
Y70503D01*
X154458Y71503D01*
X151459D01*
X161456Y68504D02*
X157457D01*
X161456Y72503D01*
Y73502D01*
X160456Y74502D01*
X158457D01*
X157457Y73502D01*
X167454Y74502D02*
X163455D01*
Y71503D01*
X165454Y72503D01*
X166454D01*
X167454Y71503D01*
Y69504D01*
X166454Y68504D01*
X164454D01*
X163455Y69504D01*
X173452Y74502D02*
X171452Y73502D01*
X169453Y71503D01*
Y69504D01*
X170453Y68504D01*
X172452D01*
X173452Y69504D01*
Y70503D01*
X172452Y71503D01*
X169453D01*
X175451Y73502D02*
X176451Y74502D01*
X178450D01*
X179450Y73502D01*
Y72503D01*
X178450Y71503D01*
X179450Y70503D01*
Y69504D01*
X178450Y68504D01*
X176451D01*
X175451Y69504D01*
Y70503D01*
X176451Y71503D01*
X175451Y72503D01*
Y73502D01*
X176451Y71503D02*
X178450D01*
X801968Y127652D02*
X805967D01*
X803968D01*
Y121653D01*
X807967D02*
Y127652D01*
X810966D01*
X811965Y126652D01*
Y124653D01*
X810966Y123653D01*
X807967D01*
X817963Y126652D02*
X816964Y127652D01*
X814964D01*
X813965Y126652D01*
Y125652D01*
X814964Y124653D01*
X816964D01*
X817963Y123653D01*
Y122653D01*
X816964Y121653D01*
X814964D01*
X813965Y122653D01*
X823961Y127652D02*
X821962Y126652D01*
X819963Y124653D01*
Y122653D01*
X820962Y121653D01*
X822962D01*
X823961Y122653D01*
Y123653D01*
X822962Y124653D01*
X819963D01*
X825961Y121653D02*
X827960D01*
X826960D01*
Y127652D01*
X825961Y126652D01*
X830959Y121653D02*
X832959D01*
X831959D01*
Y127652D01*
X830959Y126652D01*
X839956Y127652D02*
X837957Y126652D01*
X835958Y124653D01*
Y122653D01*
X836957Y121653D01*
X838957D01*
X839956Y122653D01*
Y123653D01*
X838957Y124653D01*
X835958D01*
X841956Y122653D02*
X842955Y121653D01*
X844955D01*
X845954Y122653D01*
Y126652D01*
X844955Y127652D01*
X842955D01*
X841956Y126652D01*
Y125652D01*
X842955Y124653D01*
X845954D01*
D40*
X755482Y57731D02*
Y60329D01*
X750036D02*
X755482D01*
X750036Y57731D02*
Y60329D01*
Y48333D02*
Y50931D01*
Y48333D02*
X755482D01*
Y50931D01*
X747609Y57731D02*
Y60329D01*
X742162D02*
X747609D01*
X742162Y57731D02*
Y60329D01*
Y48333D02*
Y50931D01*
Y48333D02*
X747609D01*
Y50931D01*
X833488Y61165D02*
X857588D01*
X833488Y49465D02*
X857588D01*
X833488Y97582D02*
X857588D01*
X833488Y85882D02*
X857588D01*
X179384Y23651D02*
X181983D01*
Y29098D01*
X179384D02*
X181983D01*
X169986D02*
X172584D01*
X169986Y23651D02*
Y29098D01*
Y23651D02*
X172584D01*
X166392D02*
X168990D01*
Y29098D01*
X166392D02*
X168990D01*
X156994D02*
X159592D01*
X156994Y23651D02*
Y29098D01*
Y23651D02*
X159592D01*
X166392Y37431D02*
X168990D01*
Y42878D01*
X166392D02*
X168990D01*
X156994D02*
X159592D01*
X156994Y37431D02*
Y42878D01*
Y37431D02*
X159592D01*
X179384D02*
X181983D01*
Y42878D01*
X179384D02*
X181983D01*
X169986D02*
X172584D01*
X169986Y37431D02*
Y42878D01*
Y37431D02*
X172584D01*
D41*
X857888Y55315D02*
D03*
X857888Y91732D02*
D03*
M02*
