G04 Layer_Physical_Order=1*
G04 Layer_Color=255*
%FSLAX25Y25*%
%MOIN*%
G70*
G01*
G75*
%ADD10C,0.03937*%
%ADD11C,0.02362*%
%ADD12R,0.03740X0.03937*%
%ADD13R,0.03937X0.19685*%
G04:AMPARAMS|DCode=14|XSize=15.75mil|YSize=33.47mil|CornerRadius=1.97mil|HoleSize=0mil|Usage=FLASHONLY|Rotation=270.000|XOffset=0mil|YOffset=0mil|HoleType=Round|Shape=RoundedRectangle|*
%AMROUNDEDRECTD14*
21,1,0.01575,0.02953,0,0,270.0*
21,1,0.01181,0.03347,0,0,270.0*
1,1,0.00394,-0.01476,-0.00591*
1,1,0.00394,-0.01476,0.00591*
1,1,0.00394,0.01476,0.00591*
1,1,0.00394,0.01476,-0.00591*
%
%ADD14ROUNDEDRECTD14*%
%ADD15R,0.04528X0.14173*%
%ADD16R,0.07874X0.07874*%
%ADD17R,0.05512X0.04134*%
%ADD18R,0.03937X0.03740*%
G04:AMPARAMS|DCode=19|XSize=23.62mil|YSize=39.37mil|CornerRadius=2.01mil|HoleSize=0mil|Usage=FLASHONLY|Rotation=270.000|XOffset=0mil|YOffset=0mil|HoleType=Round|Shape=RoundedRectangle|*
%AMROUNDEDRECTD19*
21,1,0.02362,0.03535,0,0,270.0*
21,1,0.01961,0.03937,0,0,270.0*
1,1,0.00402,-0.01768,-0.00980*
1,1,0.00402,-0.01768,0.00980*
1,1,0.00402,0.01768,0.00980*
1,1,0.00402,0.01768,-0.00980*
%
%ADD19ROUNDEDRECTD19*%
%ADD20O,0.01181X0.11811*%
%ADD21O,0.03937X0.07087*%
%ADD22O,0.07500X0.02500*%
%ADD23R,0.03543X0.03937*%
%ADD24O,0.05118X0.01181*%
%ADD25R,0.47244X0.11811*%
%ADD26C,0.05905*%
%ADD27C,0.01181*%
%ADD28C,0.02500*%
%ADD29C,0.00787*%
%ADD30C,0.07874*%
%ADD31C,0.01968*%
%ADD32C,0.03150*%
%ADD33C,0.02756*%
%ADD34C,0.03937*%
%ADD35C,0.19685*%
%ADD36C,0.05512*%
%ADD37C,0.02362*%
G36*
X496850Y197471D02*
X497700Y197538D01*
X499297Y197921D01*
X500814Y198549D01*
X502214Y199407D01*
X503463Y200474D01*
X504530Y201723D01*
X505388Y203123D01*
X506016Y204640D01*
X506036Y204724D01*
X948819Y204724D01*
Y83205D01*
X948005Y82868D01*
X946605Y82010D01*
X945356Y80943D01*
X944289Y79695D01*
X943431Y78294D01*
X942803Y76777D01*
X942419Y75180D01*
X942352Y74331D01*
X952756D01*
Y72756D01*
X942352D01*
X942419Y71906D01*
X942803Y70309D01*
X943431Y68792D01*
X944289Y67392D01*
X945356Y66143D01*
X946605Y65077D01*
X948005Y64219D01*
X948819Y63881D01*
Y3937D01*
X133858D01*
X106299Y31496D01*
X55118D01*
Y55118D01*
X47244Y62992D01*
X3937D01*
Y63881D01*
X4751Y64219D01*
X6151Y65077D01*
X7400Y66143D01*
X8467Y67392D01*
X9325Y68792D01*
X9953Y70309D01*
X10336Y71906D01*
X10403Y72756D01*
X0D01*
Y74331D01*
X10403D01*
X10336Y75180D01*
X9953Y76777D01*
X9325Y78294D01*
X8467Y79695D01*
X7400Y80943D01*
X6151Y82010D01*
X4751Y82868D01*
X3937Y83205D01*
Y204724D01*
X189764Y204724D01*
X216339Y178150D01*
X308071Y178150D01*
X334646Y204724D01*
X486090D01*
X486110Y204640D01*
X486738Y203123D01*
X487596Y201723D01*
X488663Y200474D01*
X489912Y199407D01*
X491312Y198549D01*
X492829Y197921D01*
X494426Y197538D01*
X495276Y197471D01*
Y207874D01*
X496850D01*
Y197471D01*
D02*
G37*
%LPC*%
G36*
X67069Y61417D02*
X65276D01*
Y58186D01*
X65779Y58395D01*
X66313Y58805D01*
X66724Y59339D01*
X66981Y59962D01*
X67069Y60630D01*
Y61417D01*
D02*
G37*
G36*
X671063Y59252D02*
X668988D01*
X669030Y59188D01*
X669421Y58927D01*
X669882Y58835D01*
X671063D01*
Y59252D01*
D02*
G37*
G36*
X63701Y61417D02*
X61907D01*
Y60630D01*
X61995Y59962D01*
X62253Y59339D01*
X62663Y58805D01*
X63198Y58395D01*
X63701Y58186D01*
Y61417D01*
D02*
G37*
G36*
X716339Y59153D02*
X713780D01*
Y57283D01*
X716339D01*
Y59153D01*
D02*
G37*
G36*
X708464D02*
X705906D01*
Y57283D01*
X708464D01*
Y59153D01*
D02*
G37*
G36*
X805906Y103839D02*
Y103839D01*
X805406Y103839D01*
X798819D01*
Y103764D01*
X797047D01*
X796328Y103669D01*
X795657Y103392D01*
X795082Y102950D01*
X788532Y96400D01*
X787795Y96497D01*
X786562Y96335D01*
X785413Y95859D01*
X784426Y95102D01*
X783669Y94115D01*
X783192Y92966D01*
X783030Y91732D01*
Y65360D01*
X761806Y44135D01*
X754161D01*
Y48425D01*
X755413D01*
Y53937D01*
X750098D01*
Y48425D01*
X751351D01*
Y44135D01*
X746287D01*
Y48425D01*
X747539D01*
Y53937D01*
X742224D01*
Y48425D01*
X743477D01*
Y44135D01*
X188976D01*
X187743Y43973D01*
X186594Y43497D01*
X185607Y42740D01*
X184850Y41753D01*
X184374Y40603D01*
X184211Y39370D01*
X184374Y38137D01*
X184446Y37962D01*
X181763Y35279D01*
X150127D01*
X145515Y39891D01*
Y48298D01*
X149677Y52461D01*
X152087D01*
X152756Y52328D01*
X157631D01*
X157788Y52223D01*
X158173Y52146D01*
X161709D01*
X162094Y52223D01*
X162421Y52441D01*
X162639Y52768D01*
X162716Y53154D01*
Y55114D01*
X162639Y55500D01*
X162421Y55827D01*
X162094Y56045D01*
X161709Y56122D01*
X158173D01*
X157788Y56045D01*
X157631Y55940D01*
X155512D01*
Y58169D01*
X148425D01*
Y57262D01*
X147848Y56876D01*
X141746Y50774D01*
X141267Y50058D01*
X141099Y49213D01*
Y38976D01*
X141267Y38131D01*
X141746Y37415D01*
X147652Y31510D01*
X148368Y31031D01*
X149213Y30863D01*
X176926D01*
Y29035D01*
X176378D01*
Y23720D01*
X181890D01*
Y29035D01*
X181342D01*
Y30863D01*
X182677D01*
X183522Y31031D01*
X184238Y31510D01*
X187568Y34840D01*
X187743Y34767D01*
X188976Y34605D01*
X763779D01*
X765013Y34767D01*
X766162Y35243D01*
X767149Y36001D01*
X791165Y60016D01*
X791922Y61003D01*
X792247Y61787D01*
X798819D01*
Y61713D01*
X805906D01*
X805906Y61713D01*
Y61713D01*
X809749D01*
X814075Y57386D01*
Y45079D01*
X820177D01*
Y60827D01*
X818932D01*
Y62933D01*
X819760Y63760D01*
X820276D01*
X820660Y63837D01*
X820985Y64054D01*
X821203Y64380D01*
X821279Y64764D01*
Y65945D01*
X821203Y66329D01*
X820985Y66654D01*
X820660Y66872D01*
X820276Y66948D01*
X819602D01*
X819491Y67023D01*
X818799Y67161D01*
X818108Y67023D01*
X817996Y66948D01*
X817323D01*
X816939Y66872D01*
X816613Y66654D01*
X816396Y66329D01*
X816319Y65945D01*
Y65429D01*
X815849Y64958D01*
X815457Y64372D01*
X815320Y63681D01*
Y61904D01*
X814858Y61713D01*
X812992Y63578D01*
Y67421D01*
X805906D01*
X805906Y67421D01*
Y67421D01*
X798819D01*
Y67347D01*
X792560D01*
Y91732D01*
X792463Y92469D01*
X798199Y98205D01*
X798819D01*
Y98130D01*
X805906D01*
X805906Y98130D01*
Y98130D01*
X809749D01*
X814075Y93804D01*
Y81496D01*
X820177D01*
Y97244D01*
X818932D01*
Y99350D01*
X819760Y100178D01*
X820276D01*
X820660Y100254D01*
X820985Y100471D01*
X821203Y100797D01*
X821279Y101181D01*
Y102362D01*
X821203Y102746D01*
X820985Y103072D01*
X820660Y103289D01*
X820276Y103366D01*
X819602D01*
X819491Y103440D01*
X818799Y103578D01*
X818108Y103440D01*
X817996Y103366D01*
X817323D01*
X816939Y103289D01*
X816613Y103072D01*
X816396Y102746D01*
X816319Y102362D01*
Y101846D01*
X815849Y101376D01*
X815457Y100790D01*
X815320Y100098D01*
Y98321D01*
X814858Y98130D01*
X812992Y99995D01*
Y103839D01*
X805906D01*
Y103839D01*
X805906Y103839D01*
D02*
G37*
G36*
X704331Y79134D02*
X701772D01*
Y77264D01*
X704331D01*
Y79134D01*
D02*
G37*
G36*
X851772Y74705D02*
X851272Y74705D01*
X848819D01*
Y72047D01*
Y69390D01*
X851272D01*
X851378Y69390D01*
X851878Y69390D01*
X854331D01*
Y72047D01*
Y74705D01*
X851878D01*
X851772Y74705D01*
D02*
G37*
G36*
X708464Y79134D02*
X705905D01*
Y77264D01*
X708464D01*
Y79134D01*
D02*
G37*
G36*
Y82579D02*
X705905D01*
Y80709D01*
X708464D01*
Y82579D01*
D02*
G37*
G36*
X704331D02*
X701772D01*
Y80709D01*
X704331D01*
Y82579D01*
D02*
G37*
G36*
X712205Y59153D02*
X709646D01*
Y57283D01*
X712205D01*
Y59153D01*
D02*
G37*
G36*
X112205Y102215D02*
X110714Y102018D01*
X109326Y101443D01*
X108133Y100528D01*
X107218Y99336D01*
X106643Y97947D01*
X106447Y96457D01*
X106643Y94966D01*
X107218Y93578D01*
X108133Y92385D01*
X109326Y91470D01*
X110714Y90895D01*
X112205Y90699D01*
X113695Y90895D01*
X115084Y91470D01*
X116276Y92385D01*
X117191Y93578D01*
X117766Y94966D01*
X117963Y96457D01*
X117766Y97947D01*
X117191Y99336D01*
X116276Y100528D01*
X115084Y101443D01*
X113695Y102018D01*
X112205Y102215D01*
D02*
G37*
G36*
X704331Y55709D02*
X701772D01*
Y53839D01*
X704331D01*
Y55709D01*
D02*
G37*
G36*
X693504Y58071D02*
X670079D01*
Y52362D01*
X693504D01*
Y58071D01*
D02*
G37*
G36*
X118307Y53051D02*
X115748D01*
Y51181D01*
X118307D01*
Y53051D01*
D02*
G37*
G36*
X668504Y58071D02*
X645079D01*
Y52362D01*
X668504D01*
Y58071D01*
D02*
G37*
G36*
X708464Y55709D02*
X705906D01*
Y53839D01*
X708464D01*
Y55709D01*
D02*
G37*
G36*
X752756Y69709D02*
X752037Y69614D01*
X751366Y69336D01*
X750790Y68895D01*
X750349Y68319D01*
X750071Y67649D01*
X749976Y66929D01*
X750071Y66210D01*
X750349Y65539D01*
X750790Y64964D01*
X751366Y64522D01*
X751552Y64445D01*
Y60236D01*
X750098D01*
Y54724D01*
X755413D01*
Y60236D01*
X753960D01*
Y64445D01*
X754146Y64522D01*
X754721Y64964D01*
X755163Y65539D01*
X755441Y66210D01*
X755536Y66929D01*
X755441Y67649D01*
X755163Y68319D01*
X754721Y68895D01*
X754146Y69336D01*
X753475Y69614D01*
X752756Y69709D01*
D02*
G37*
G36*
X704331Y59153D02*
X701772D01*
Y57283D01*
X704331D01*
Y59153D01*
D02*
G37*
G36*
X744882Y81080D02*
X744163Y80985D01*
X743492Y80707D01*
X742916Y80265D01*
X742475Y79690D01*
X742197Y79019D01*
X742102Y78300D01*
X742197Y77581D01*
X742475Y76910D01*
X742916Y76335D01*
X743492Y75893D01*
X743678Y75816D01*
Y60236D01*
X742224D01*
Y54724D01*
X747539D01*
Y60236D01*
X746086D01*
Y75816D01*
X746272Y75893D01*
X746847Y76335D01*
X747289Y76910D01*
X747567Y77581D01*
X747662Y78300D01*
X747567Y79019D01*
X747289Y79690D01*
X746847Y80265D01*
X746272Y80707D01*
X745601Y80985D01*
X744882Y81080D01*
D02*
G37*
G36*
X712205Y55709D02*
X709646D01*
Y53839D01*
X712205D01*
Y55709D01*
D02*
G37*
G36*
X716339D02*
X713780D01*
Y53839D01*
X716339D01*
Y55709D01*
D02*
G37*
G36*
X205906Y64272D02*
X203346D01*
Y62402D01*
X205906D01*
Y64272D01*
D02*
G37*
G36*
X202559D02*
X200000D01*
Y62402D01*
X202559D01*
Y64272D01*
D02*
G37*
G36*
X210039D02*
X207480D01*
Y62402D01*
X210039D01*
Y64272D01*
D02*
G37*
G36*
X65276Y66223D02*
Y62992D01*
X67069D01*
Y63779D01*
X66981Y64448D01*
X66724Y65070D01*
X66313Y65605D01*
X65779Y66015D01*
X65276Y66223D01*
D02*
G37*
G36*
X63701Y66223D02*
X63198Y66015D01*
X62663Y65605D01*
X62253Y65070D01*
X61995Y64448D01*
X61907Y63779D01*
Y62992D01*
X63701D01*
Y66223D01*
D02*
G37*
G36*
X198425Y64272D02*
X195866D01*
Y62402D01*
X198425D01*
Y64272D01*
D02*
G37*
G36*
X202559Y60827D02*
X200000D01*
Y58957D01*
X202559D01*
Y60827D01*
D02*
G37*
G36*
X198425D02*
X195866D01*
Y58957D01*
X198425D01*
Y60827D01*
D02*
G37*
G36*
X205906D02*
X203346D01*
Y58957D01*
X205906D01*
Y60827D01*
D02*
G37*
G36*
X674713Y61220D02*
X671850D01*
X668988D01*
X669030Y61156D01*
Y60891D01*
X668988Y60827D01*
X671850D01*
X674713D01*
X674670Y60891D01*
Y61156D01*
X674713Y61220D01*
D02*
G37*
G36*
X210039Y60827D02*
X207480D01*
Y58957D01*
X210039D01*
Y60827D01*
D02*
G37*
G36*
X818502Y77189D02*
X817783Y77094D01*
X817113Y76817D01*
X816537Y76375D01*
X816095Y75799D01*
X815817Y75129D01*
X815723Y74409D01*
X815817Y73690D01*
X816095Y73019D01*
X816537Y72444D01*
X816621Y72379D01*
X816613Y71773D01*
X816396Y71447D01*
X816319Y71063D01*
Y69882D01*
X816396Y69498D01*
X816613Y69172D01*
X816939Y68955D01*
X817323Y68878D01*
X820276D01*
X820660Y68955D01*
X820985Y69172D01*
X821203Y69498D01*
X821279Y69882D01*
Y71063D01*
X821203Y71447D01*
X820985Y71773D01*
X820660Y71990D01*
X820595Y72142D01*
X820531Y72526D01*
X820910Y73019D01*
X821187Y73690D01*
X821282Y74409D01*
X821187Y75129D01*
X820910Y75799D01*
X820468Y76375D01*
X819892Y76817D01*
X819222Y77094D01*
X818502Y77189D01*
D02*
G37*
G36*
X801575Y74705D02*
X799016D01*
Y72835D01*
X801575D01*
Y74705D01*
D02*
G37*
G36*
X840158Y74705D02*
X837598D01*
Y72835D01*
X840158D01*
Y74705D01*
D02*
G37*
G36*
X810236Y74705D02*
Y72835D01*
X812795D01*
Y74705D01*
X810236D01*
D02*
G37*
G36*
X674713Y59252D02*
X672638D01*
Y58835D01*
X673819D01*
X674280Y58927D01*
X674670Y59188D01*
X674713Y59252D01*
D02*
G37*
G36*
X855906Y74705D02*
Y72835D01*
X858465D01*
Y74705D01*
X855906D01*
D02*
G37*
G36*
X858465Y71260D02*
X855906D01*
Y69390D01*
X858465D01*
Y71260D01*
D02*
G37*
G36*
X806102Y74705D02*
X805709Y74705D01*
X805602Y74705D01*
X803150D01*
Y72047D01*
Y69390D01*
X805602D01*
X805709Y69390D01*
X806102Y69390D01*
X806209Y69390D01*
X808661D01*
Y72047D01*
Y74705D01*
X806209D01*
X806102Y74705D01*
D02*
G37*
G36*
X840158Y71260D02*
X837598D01*
Y69390D01*
X840158D01*
Y71260D01*
D02*
G37*
G36*
X801575Y71260D02*
X799016D01*
Y69390D01*
X801575D01*
Y71260D01*
D02*
G37*
G36*
X812795Y71260D02*
X810236D01*
Y69390D01*
X812795D01*
Y71260D01*
D02*
G37*
G36*
X844685Y74705D02*
X844291Y74705D01*
X844185Y74705D01*
X841732D01*
Y72047D01*
Y69390D01*
X844185D01*
X844291Y69390D01*
X844685Y69390D01*
X844791Y69390D01*
X847244D01*
Y72047D01*
Y74705D01*
X844791D01*
X844685Y74705D01*
D02*
G37*
G36*
X114173Y53051D02*
X111614D01*
Y51181D01*
X114173D01*
Y53051D01*
D02*
G37*
G36*
X851772Y111122D02*
X851272Y111122D01*
X848819D01*
Y108465D01*
Y105807D01*
X851272D01*
X851378Y105807D01*
X851878Y105807D01*
X854331D01*
Y108465D01*
Y111122D01*
X851878D01*
X851772Y111122D01*
D02*
G37*
G36*
X855906Y111122D02*
Y109252D01*
X858465D01*
Y111122D01*
X855906D01*
D02*
G37*
G36*
X274803Y139200D02*
X269291D01*
X268754Y139093D01*
X268298Y138789D01*
X262017Y132507D01*
X145276D01*
X144738Y132400D01*
X144282Y132096D01*
X125778Y113592D01*
X125474Y113136D01*
X125367Y112598D01*
Y96063D01*
X125474Y95525D01*
X125778Y95069D01*
X127933Y92914D01*
X127734Y92433D01*
X127605Y91457D01*
X127734Y90480D01*
X128111Y89570D01*
X128710Y88789D01*
X129492Y88190D01*
X130402Y87813D01*
X131378Y87684D01*
X132354Y87813D01*
X133264Y88190D01*
X134046Y88789D01*
X134645Y89570D01*
X135022Y90480D01*
X135150Y91457D01*
X135022Y92433D01*
X134645Y93343D01*
X134046Y94124D01*
X133264Y94724D01*
X132354Y95101D01*
X131378Y95229D01*
X130402Y95101D01*
X129920Y94901D01*
X128177Y96645D01*
Y98987D01*
X128677Y99157D01*
X128851Y98930D01*
X129591Y98362D01*
X130453Y98005D01*
X130591Y97987D01*
Y101457D01*
Y104927D01*
X130453Y104909D01*
X129591Y104552D01*
X128851Y103984D01*
X128677Y103757D01*
X128177Y103927D01*
Y112016D01*
X145858Y129697D01*
X155010D01*
X155201Y129235D01*
X135227Y109261D01*
X134923Y108805D01*
X134816Y108268D01*
Y103619D01*
X134316Y103449D01*
X133905Y103984D01*
X133165Y104552D01*
X132303Y104909D01*
X132165Y104927D01*
Y101457D01*
Y97987D01*
X132303Y98005D01*
X133165Y98362D01*
X133905Y98930D01*
X134316Y99464D01*
X134816Y99295D01*
Y98425D01*
X134923Y97887D01*
X135227Y97432D01*
X137589Y95069D01*
X138045Y94765D01*
X138583Y94658D01*
X138628D01*
X138789Y94185D01*
X138710Y94124D01*
X138111Y93343D01*
X137734Y92433D01*
X137606Y91457D01*
X137734Y90480D01*
X138111Y89570D01*
X138710Y88789D01*
X139492Y88190D01*
X140402Y87813D01*
X141378Y87684D01*
X142354Y87813D01*
X142836Y88012D01*
X150345Y80503D01*
X150801Y80198D01*
X151339Y80091D01*
X197973D01*
X214490Y63573D01*
X214946Y63269D01*
X215484Y63162D01*
X269543D01*
X269642Y62662D01*
X269510Y62607D01*
X268934Y62165D01*
X268493Y61590D01*
X268215Y60919D01*
X268120Y60200D01*
X268215Y59481D01*
X268493Y58810D01*
X268934Y58235D01*
X269510Y57793D01*
X270181Y57515D01*
X270900Y57420D01*
X271619Y57515D01*
X272290Y57793D01*
X272866Y58235D01*
X273307Y58810D01*
X273384Y58996D01*
X522900D01*
X522900Y58996D01*
X523361Y59087D01*
X523751Y59348D01*
X538199Y73796D01*
X625104D01*
X625534Y73234D01*
X625965Y72904D01*
X625795Y72404D01*
X540700D01*
X540239Y72313D01*
X539849Y72052D01*
X539848Y72052D01*
X524401Y56604D01*
X289584D01*
X289507Y56790D01*
X289066Y57366D01*
X288490Y57807D01*
X287819Y58085D01*
X287100Y58180D01*
X286381Y58085D01*
X285710Y57807D01*
X285135Y57366D01*
X284693Y56790D01*
X284415Y56119D01*
X284320Y55400D01*
X284415Y54681D01*
X284693Y54010D01*
X285135Y53434D01*
X285710Y52993D01*
X286381Y52715D01*
X287100Y52620D01*
X287819Y52715D01*
X288490Y52993D01*
X289066Y53434D01*
X289507Y54010D01*
X289584Y54196D01*
X524900D01*
X524900Y54196D01*
X525361Y54287D01*
X525751Y54549D01*
X541199Y69996D01*
X631516D01*
X631593Y69810D01*
X632034Y69235D01*
X632047Y69225D01*
X631878Y68725D01*
X547047D01*
X546328Y68630D01*
X545657Y68352D01*
X545082Y67910D01*
X528376Y51205D01*
X213553D01*
X210236Y54522D01*
Y56988D01*
X203256D01*
X203150Y56988D01*
Y56988D01*
X202756D01*
Y56988D01*
X195669D01*
Y56914D01*
X194193D01*
Y63386D01*
X193921D01*
Y64370D01*
X193827Y65089D01*
X193549Y65760D01*
X193107Y66336D01*
X187399Y72044D01*
X186823Y72486D01*
X186153Y72764D01*
X185433Y72858D01*
X141732D01*
X141013Y72764D01*
X140342Y72486D01*
X139767Y72044D01*
X128376Y60654D01*
X118504D01*
Y60728D01*
X116037D01*
X112595Y64170D01*
X112020Y64612D01*
X111349Y64890D01*
X110630Y64984D01*
X101618D01*
X101541Y65169D01*
X101099Y65745D01*
X100524Y66187D01*
X99853Y66465D01*
X99134Y66559D01*
X98414Y66465D01*
X97744Y66187D01*
X97168Y65745D01*
X96727Y65169D01*
X96449Y64499D01*
X96354Y63779D01*
Y60630D01*
X96449Y59911D01*
X96727Y59240D01*
X97168Y58664D01*
X97744Y58223D01*
X98414Y57945D01*
X99134Y57850D01*
X99853Y57945D01*
X100524Y58223D01*
X101099Y58664D01*
X101541Y59240D01*
X101618Y59425D01*
X109478D01*
X111417Y57486D01*
Y55020D01*
X118504D01*
Y55094D01*
X129528D01*
X130247Y55189D01*
X130917Y55467D01*
X131493Y55909D01*
X142884Y67299D01*
X184282D01*
X187820Y63761D01*
X188091Y63386D01*
X188091D01*
X188091Y63386D01*
Y47862D01*
X185433D01*
X184895Y47755D01*
X184440Y47450D01*
X179804Y42815D01*
X177732D01*
X177563Y43291D01*
X177560Y43315D01*
X177998Y43886D01*
X178276Y44556D01*
X178370Y45276D01*
X178276Y45995D01*
X177998Y46665D01*
X177635Y47138D01*
X177793Y47638D01*
X182579D01*
Y63386D01*
X176476D01*
Y56392D01*
X176426Y56342D01*
X170768D01*
X169923Y56174D01*
X169845Y56122D01*
X169000D01*
X168614Y56045D01*
X168288Y55827D01*
X168069Y55500D01*
X167992Y55114D01*
Y53154D01*
X168069Y52768D01*
X168288Y52441D01*
X168318Y52336D01*
X168337Y51807D01*
X168255Y51683D01*
X168193Y51374D01*
Y51181D01*
X170768D01*
Y49606D01*
X168193D01*
Y49413D01*
X168255Y49105D01*
X168337Y48981D01*
X168318Y48452D01*
X168288Y48346D01*
X168069Y48019D01*
X167992Y47634D01*
Y45673D01*
X168069Y45288D01*
X168288Y44961D01*
X168614Y44742D01*
X169000Y44666D01*
X172535D01*
X172705Y44699D01*
X172906Y44556D01*
X173183Y43886D01*
X173621Y43315D01*
X173618Y43291D01*
X173449Y42815D01*
X170079D01*
Y41562D01*
X168898D01*
Y42815D01*
X165471D01*
X162699Y45587D01*
X162716Y45673D01*
Y47634D01*
X162639Y48019D01*
X162421Y48346D01*
X162094Y48565D01*
X161709Y48641D01*
X158173D01*
X157788Y48565D01*
X157461Y48346D01*
X157242Y48019D01*
X157166Y47634D01*
Y45673D01*
X157242Y45288D01*
X157461Y44961D01*
X157788Y44742D01*
X158173Y44666D01*
X159647D01*
X161232Y43080D01*
X161041Y42618D01*
X160630D01*
Y40945D01*
X162402D01*
Y41258D01*
X162864Y41449D01*
X163386Y40927D01*
Y37500D01*
X168898D01*
Y38752D01*
X170079D01*
Y37500D01*
X175591D01*
Y42121D01*
X175957Y42287D01*
X176378Y41979D01*
Y37500D01*
X181890D01*
Y40927D01*
X186015Y45052D01*
X197638D01*
X198175Y45159D01*
X198631Y45463D01*
X204448Y51279D01*
X205616D01*
X210436Y46460D01*
X211012Y46018D01*
X211682Y45740D01*
X212402Y45645D01*
X529528D01*
X530247Y45740D01*
X530917Y46018D01*
X531493Y46460D01*
X548199Y63165D01*
X668656D01*
X668915Y62795D01*
X669169D01*
X669344Y62678D01*
X669882Y62571D01*
X671850D01*
X673819D01*
X674357Y62678D01*
X674532Y62795D01*
X674786D01*
X675044Y63165D01*
X701575D01*
Y61122D01*
X708661D01*
Y61197D01*
X709449D01*
Y61122D01*
X716535D01*
Y66831D01*
X709449D01*
Y66756D01*
X708661D01*
Y66831D01*
X706195D01*
X705115Y67910D01*
X704539Y68352D01*
X703962Y68591D01*
X703836Y68896D01*
X703806Y69142D01*
X704251Y69587D01*
X708661D01*
Y75295D01*
X701575D01*
Y71287D01*
X675418D01*
X675010Y71787D01*
X675023Y71850D01*
X674931Y72311D01*
X674670Y72702D01*
Y72967D01*
X674931Y73358D01*
X675023Y73819D01*
X674931Y74280D01*
X674917Y74302D01*
X674812Y74794D01*
X675117Y75250D01*
X675224Y75787D01*
X675117Y76325D01*
X674819Y76772D01*
X675117Y77218D01*
X675224Y77756D01*
X675117Y78294D01*
X674819Y78740D01*
X675117Y79187D01*
X675224Y79724D01*
X675117Y80262D01*
X674819Y80709D01*
X675117Y81155D01*
X675224Y81693D01*
X675117Y82231D01*
X674812Y82686D01*
X674913Y83159D01*
X674931Y83200D01*
X674931Y83201D01*
X675023Y83661D01*
X674931Y84122D01*
X674917Y84145D01*
X674812Y84636D01*
X675117Y85092D01*
X675224Y85630D01*
X675211Y85694D01*
X675622Y86194D01*
X678099D01*
X678108Y86179D01*
X678759Y85744D01*
X679528Y85591D01*
X680296Y85744D01*
X680947Y86179D01*
X681382Y86830D01*
X681535Y87598D01*
X681382Y88367D01*
X680947Y89018D01*
X680296Y89453D01*
X679528Y89605D01*
X678759Y89453D01*
X678108Y89018D01*
X678099Y89003D01*
X675622D01*
X675211Y89503D01*
X675224Y89567D01*
X675117Y90105D01*
X674812Y90560D01*
X674917Y91052D01*
X674931Y91075D01*
X675023Y91535D01*
X674931Y91996D01*
X674917Y92019D01*
X674812Y92510D01*
X675117Y92966D01*
X675224Y93504D01*
X675211Y93568D01*
X675622Y94068D01*
X678749D01*
X682248Y90568D01*
X682245Y90551D01*
X682398Y89783D01*
X682833Y89132D01*
X683484Y88697D01*
X684252Y88544D01*
X685020Y88697D01*
X685671Y89132D01*
X686106Y89783D01*
X686259Y90551D01*
X686106Y91319D01*
X685671Y91970D01*
X685020Y92405D01*
X684252Y92558D01*
X684235Y92555D01*
X681216Y95574D01*
X681407Y96036D01*
X683867D01*
X688770Y91132D01*
X689226Y90828D01*
X689764Y90721D01*
X693059D01*
X693069Y90707D01*
X693720Y90272D01*
X694488Y90119D01*
X695256Y90272D01*
X695907Y90707D01*
X696343Y91358D01*
X696495Y92126D01*
X696343Y92894D01*
X695907Y93545D01*
X695256Y93980D01*
X694488Y94133D01*
X693720Y93980D01*
X693069Y93545D01*
X693059Y93531D01*
X690346D01*
X685442Y98434D01*
X684986Y98739D01*
X684449Y98846D01*
X680953D01*
X680712Y99309D01*
X680718Y99346D01*
X681341Y99762D01*
X681776Y100413D01*
X681864Y100857D01*
X682418Y101088D01*
X682696Y100902D01*
X683465Y100749D01*
X684233Y100902D01*
X684884Y101337D01*
X685319Y101988D01*
X685472Y102756D01*
X685319Y103524D01*
X684884Y104175D01*
X684233Y104610D01*
X683465Y104763D01*
X683438Y104758D01*
X683018Y105038D01*
X682480Y105145D01*
X678861D01*
X678324Y105038D01*
X677894Y104751D01*
X675418D01*
X675010Y105251D01*
X675023Y105315D01*
X675010Y105378D01*
X675418Y105878D01*
X675450D01*
X675987Y105985D01*
X676443Y106290D01*
X677606Y107453D01*
X685911D01*
X690721Y102643D01*
Y101035D01*
X690707Y101025D01*
X690272Y100374D01*
X690119Y99606D01*
X690272Y98838D01*
X690707Y98187D01*
X691358Y97752D01*
X692126Y97599D01*
X692894Y97752D01*
X693545Y98187D01*
X693980Y98838D01*
X694133Y99606D01*
X693980Y100374D01*
X693545Y101025D01*
X693531Y101035D01*
Y103225D01*
X693424Y103763D01*
X693119Y104219D01*
X688378Y108960D01*
X688570Y109422D01*
X689772D01*
X692091Y107103D01*
X692087Y107087D01*
X692240Y106318D01*
X692675Y105667D01*
X693326Y105232D01*
X694095Y105079D01*
X694863Y105232D01*
X695514Y105667D01*
X695949Y106318D01*
X696102Y107087D01*
X695949Y107855D01*
X695514Y108506D01*
X694863Y108941D01*
X694095Y109094D01*
X694078Y109090D01*
X691348Y111820D01*
X690892Y112125D01*
X690354Y112232D01*
X676209D01*
X675671Y112125D01*
X675503Y112012D01*
X675214Y111822D01*
X674848Y112160D01*
X674819Y112205D01*
X675117Y112651D01*
X675224Y113189D01*
X675211Y113252D01*
X675622Y113752D01*
X678361D01*
X678502Y113541D01*
X679153Y113106D01*
X679921Y112954D01*
X680689Y113106D01*
X681341Y113541D01*
X681776Y114193D01*
X681928Y114961D01*
X681776Y115729D01*
X681681Y115871D01*
X681916Y116312D01*
X683611D01*
X683620Y116297D01*
X684271Y115862D01*
X685039Y115709D01*
X685807Y115862D01*
X686459Y116297D01*
X686894Y116948D01*
X687046Y117717D01*
X686894Y118485D01*
X686459Y119136D01*
X685807Y119571D01*
X685039Y119724D01*
X684271Y119571D01*
X683620Y119136D01*
X683611Y119122D01*
X677559D01*
X677021Y119015D01*
X676566Y118710D01*
X676386Y118531D01*
X675418D01*
X675010Y119031D01*
X675023Y119095D01*
X674931Y119555D01*
X674917Y119578D01*
X674812Y120070D01*
X675117Y120525D01*
X675224Y121063D01*
X675211Y121126D01*
X675622Y121626D01*
X682087D01*
X682624Y121733D01*
X683080Y122038D01*
X686991Y125949D01*
X687008Y125946D01*
X687776Y126099D01*
X688427Y126533D01*
X688862Y127185D01*
X689015Y127953D01*
X688862Y128721D01*
X688427Y129372D01*
X687776Y129807D01*
X687008Y129960D01*
X686240Y129807D01*
X685589Y129372D01*
X685154Y128721D01*
X685001Y127953D01*
X685004Y127936D01*
X681505Y124436D01*
X675622D01*
X675211Y124936D01*
X675224Y125000D01*
X675211Y125064D01*
X675622Y125564D01*
X678775D01*
X679153Y125311D01*
X679921Y125158D01*
X680689Y125311D01*
X681341Y125746D01*
X681776Y126397D01*
X681928Y127165D01*
X681776Y127933D01*
X681341Y128585D01*
X680689Y129020D01*
X679921Y129172D01*
X679153Y129020D01*
X678502Y128585D01*
X678361Y128374D01*
X675622D01*
X675211Y128874D01*
X675224Y128937D01*
X675117Y129475D01*
X674819Y129921D01*
X675117Y130368D01*
X675224Y130905D01*
X675117Y131443D01*
X674812Y131899D01*
X674917Y132391D01*
X674931Y132413D01*
X675023Y132874D01*
X674931Y133335D01*
X674917Y133357D01*
X674812Y133849D01*
X675117Y134305D01*
X675224Y134843D01*
X675117Y135380D01*
X674812Y135836D01*
X674917Y136328D01*
X674931Y136350D01*
X675023Y136811D01*
X674931Y137272D01*
X674670Y137663D01*
X674280Y137924D01*
X673819Y138015D01*
X672638D01*
Y136811D01*
X671063D01*
Y138015D01*
X669882D01*
X669421Y137924D01*
X669030Y137663D01*
X668769Y137272D01*
X668678Y136811D01*
X668690Y136748D01*
X668282Y136248D01*
X664946D01*
X664805Y136459D01*
X664154Y136894D01*
X663386Y137046D01*
X662618Y136894D01*
X661967Y136459D01*
X661531Y135807D01*
X661379Y135039D01*
X661531Y134271D01*
X661967Y133620D01*
X662618Y133185D01*
X663386Y133032D01*
X664154Y133185D01*
X664532Y133438D01*
X668282D01*
X668690Y132938D01*
X668678Y132874D01*
X668690Y132810D01*
X668282Y132310D01*
X657865D01*
X655324Y134852D01*
X654868Y135156D01*
X654331Y135263D01*
X646063D01*
X645525Y135156D01*
X645070Y134852D01*
X642226Y132008D01*
X641765Y132254D01*
X641771Y132283D01*
X641618Y133052D01*
X641183Y133703D01*
X640532Y134138D01*
X639764Y134291D01*
X638996Y134138D01*
X638345Y133703D01*
X637910Y133052D01*
X637801Y132507D01*
X628201D01*
X627902Y133007D01*
X627958Y133112D01*
X628327Y133185D01*
X628978Y133620D01*
X629413Y134271D01*
X629566Y135039D01*
X629413Y135807D01*
X628978Y136459D01*
X628327Y136894D01*
X627559Y137046D01*
X626791Y136894D01*
X626140Y136459D01*
X625705Y135807D01*
X625552Y135039D01*
X625555Y135023D01*
X625009Y134476D01*
X280110D01*
X275797Y138789D01*
X275341Y139093D01*
X274803Y139200D01*
D02*
G37*
G36*
X925000Y138583D02*
X923228D01*
Y128937D01*
X925000D01*
Y138583D01*
D02*
G37*
G36*
X895669D02*
X893898D01*
Y128937D01*
X895669D01*
Y138583D01*
D02*
G37*
G36*
X810236Y111122D02*
Y109252D01*
X812795D01*
Y111122D01*
X810236D01*
D02*
G37*
G36*
X812795Y107677D02*
X810236D01*
Y105807D01*
X812795D01*
Y107677D01*
D02*
G37*
G36*
X844685Y111122D02*
X844291Y111122D01*
X844185Y111122D01*
X841732D01*
Y108465D01*
Y105807D01*
X844185D01*
X844291Y105807D01*
X844685Y105807D01*
X844791Y105807D01*
X847244D01*
Y108465D01*
Y111122D01*
X844791D01*
X844685Y111122D01*
D02*
G37*
G36*
X858465Y107677D02*
X855906D01*
Y105807D01*
X858465D01*
Y107677D01*
D02*
G37*
G36*
X801575Y111122D02*
X799016D01*
Y109252D01*
X801575D01*
Y111122D01*
D02*
G37*
G36*
X840158Y111122D02*
X837598D01*
Y109252D01*
X840158D01*
Y111122D01*
D02*
G37*
G36*
X668504Y144488D02*
X645079D01*
Y138779D01*
X668504D01*
Y144488D01*
D02*
G37*
G36*
X904724Y155929D02*
X904005Y155835D01*
X903335Y155557D01*
X902759Y155115D01*
X902317Y154540D01*
X902040Y153869D01*
X901945Y153150D01*
X902040Y152430D01*
X902317Y151760D01*
X902759Y151184D01*
X903123Y150905D01*
Y148850D01*
X902623Y148440D01*
X902559Y148452D01*
X902021Y148345D01*
X901575Y148047D01*
X901128Y148345D01*
X900591Y148452D01*
X900053Y148345D01*
X899597Y148041D01*
X899516Y147919D01*
X899016Y148071D01*
Y149803D01*
X897244D01*
Y139370D01*
Y128937D01*
X898795D01*
Y126348D01*
X876211Y103764D01*
X858661D01*
Y103839D01*
X851575D01*
Y103839D01*
X851575Y103839D01*
X844488D01*
X844488Y103839D01*
Y103839D01*
X837402D01*
Y103088D01*
X836902Y102881D01*
X831899Y107883D01*
X831443Y108188D01*
X830906Y108295D01*
X829687D01*
X829518Y108407D01*
X829134Y108484D01*
X826181D01*
X825797Y108407D01*
X825471Y108190D01*
X825254Y107864D01*
X825178Y107480D01*
Y106299D01*
X825254Y105915D01*
X825471Y105590D01*
X825439Y105228D01*
X825417Y105118D01*
X827658D01*
X830340D01*
X830378Y105137D01*
X830646Y105163D01*
X835818Y99991D01*
X836273Y99686D01*
X836811Y99579D01*
X837402D01*
Y98130D01*
X838622D01*
X839833Y96919D01*
X839641Y96457D01*
X831890D01*
X831791Y96916D01*
Y97244D01*
X829464D01*
Y100243D01*
X829518Y100254D01*
X829844Y100471D01*
X830061Y100797D01*
X830137Y101181D01*
Y102362D01*
X830061Y102746D01*
X829844Y103072D01*
X829876Y103433D01*
X829897Y103543D01*
X827833D01*
X827658Y103578D01*
X827482Y103543D01*
X825417D01*
X825439Y103433D01*
X825439Y103433D01*
X825471Y103072D01*
X825254Y102746D01*
X825178Y102362D01*
Y101181D01*
X825254Y100797D01*
X825471Y100471D01*
X825797Y100254D01*
X825851Y100243D01*
Y97244D01*
X825689D01*
Y81496D01*
X831791D01*
Y86549D01*
X831890Y87008D01*
X841339D01*
Y94551D01*
X841833Y94772D01*
X842080Y94577D01*
Y86614D01*
X842263Y85693D01*
X842785Y84911D01*
X847509Y80187D01*
X848291Y79665D01*
X849213Y79481D01*
X869685D01*
X870607Y79665D01*
X871388Y80187D01*
X910168Y118966D01*
X910497Y119459D01*
X910997Y119307D01*
Y87393D01*
X873040Y49437D01*
X849007D01*
X848315Y50129D01*
X848506Y50591D01*
X857087D01*
Y60039D01*
X855142D01*
Y61713D01*
X858661D01*
Y63436D01*
X858867Y63573D01*
X862292Y66998D01*
X862992Y66905D01*
X863712Y67000D01*
X864382Y67278D01*
X864958Y67720D01*
X865399Y68295D01*
X865677Y68966D01*
X865772Y69685D01*
X865677Y70404D01*
X865399Y71075D01*
X864958Y71651D01*
X864382Y72092D01*
X863712Y72370D01*
X862992Y72465D01*
X862273Y72370D01*
X861602Y72092D01*
X861027Y71651D01*
X860585Y71075D01*
X860307Y70404D01*
X860212Y69685D01*
X860305Y68985D01*
X859026Y67706D01*
X858661Y67421D01*
Y67421D01*
X858661Y67421D01*
X851575D01*
Y67421D01*
X851575Y67421D01*
X844488D01*
X844488Y67421D01*
Y67421D01*
X837402D01*
Y66670D01*
X836902Y66463D01*
X831899Y71466D01*
X831443Y71770D01*
X830906Y71877D01*
X829687D01*
X829518Y71990D01*
X829134Y72066D01*
X826181D01*
X825797Y71990D01*
X825471Y71773D01*
X825254Y71447D01*
X825178Y71063D01*
Y69882D01*
X825254Y69498D01*
X825471Y69172D01*
X825439Y68811D01*
X825417Y68701D01*
X827658D01*
X830340D01*
X830378Y68719D01*
X830646Y68745D01*
X835818Y63573D01*
X836273Y63269D01*
X836811Y63162D01*
X837402D01*
Y61713D01*
X841812D01*
X842690Y60835D01*
Y52362D01*
X842797Y51824D01*
X843101Y51369D01*
X847432Y47038D01*
X847888Y46733D01*
X848425Y46626D01*
X873622D01*
X874160Y46733D01*
X874615Y47038D01*
X913395Y85818D01*
X913700Y86273D01*
X913807Y86811D01*
Y134615D01*
X914307Y135025D01*
X914370Y135012D01*
X914908Y135119D01*
X915354Y135418D01*
X915801Y135119D01*
X916339Y135012D01*
X916876Y135119D01*
X917323Y135418D01*
X917769Y135119D01*
X918307Y135012D01*
X918845Y135119D01*
X919300Y135424D01*
X919382Y135546D01*
X919882Y135394D01*
Y128937D01*
X921653D01*
Y139370D01*
Y149803D01*
X919882D01*
Y148071D01*
X919382Y147919D01*
X919300Y148041D01*
X918845Y148345D01*
X918307Y148452D01*
X917769Y148345D01*
X917323Y148047D01*
X916876Y148345D01*
X916339Y148452D01*
X915801Y148345D01*
X915354Y148047D01*
X914908Y148345D01*
X914370Y148452D01*
X913832Y148345D01*
X913386Y148047D01*
X912939Y148345D01*
X912402Y148452D01*
X911864Y148345D01*
X911417Y148047D01*
X910971Y148345D01*
X910433Y148452D01*
X909895Y148345D01*
X909449Y148047D01*
X909002Y148345D01*
X908465Y148452D01*
X907927Y148345D01*
X907480Y148047D01*
X907034Y148345D01*
X906496Y148452D01*
X906433Y148440D01*
X905933Y148850D01*
Y150667D01*
X906114Y150742D01*
X906690Y151184D01*
X907132Y151760D01*
X907409Y152430D01*
X907504Y153150D01*
X907409Y153869D01*
X907132Y154540D01*
X906690Y155115D01*
X906114Y155557D01*
X905444Y155835D01*
X904724Y155929D01*
D02*
G37*
G36*
X693504Y151772D02*
X670079D01*
Y146063D01*
X693504D01*
Y151772D01*
D02*
G37*
G36*
X112205Y192766D02*
X110714Y192570D01*
X109326Y191994D01*
X108133Y191079D01*
X107218Y189887D01*
X106643Y188498D01*
X106447Y187008D01*
X106643Y185518D01*
X107218Y184129D01*
X108133Y182936D01*
X109326Y182021D01*
X110714Y181446D01*
X112205Y181250D01*
X113695Y181446D01*
X115084Y182021D01*
X116276Y182936D01*
X117191Y184129D01*
X117766Y185518D01*
X117963Y187008D01*
X117766Y188498D01*
X117191Y189887D01*
X116276Y191079D01*
X115084Y191994D01*
X113695Y192570D01*
X112205Y192766D01*
D02*
G37*
G36*
X194882Y194519D02*
X193957Y194397D01*
X193095Y194040D01*
X192355Y193472D01*
X191787Y192732D01*
X191609Y192303D01*
X191068D01*
X190890Y192732D01*
X190322Y193472D01*
X189582Y194040D01*
X188720Y194397D01*
X187795Y194519D01*
X186870Y194397D01*
X186008Y194040D01*
X185268Y193472D01*
X184700Y192732D01*
X184343Y191870D01*
X184221Y190945D01*
X184343Y190020D01*
X184700Y189158D01*
X185268Y188418D01*
X186008Y187850D01*
X186390Y187692D01*
Y168692D01*
X163198Y145499D01*
X113195D01*
X112657Y145393D01*
X112201Y145088D01*
X79715Y112602D01*
X79411Y112146D01*
X79304Y111608D01*
Y69165D01*
X76063Y65924D01*
X75721Y66187D01*
X75050Y66465D01*
X74331Y66559D01*
X73611Y66465D01*
X72941Y66187D01*
X72365Y65745D01*
X71923Y65169D01*
X71646Y64499D01*
X71551Y63779D01*
Y60630D01*
X71646Y59911D01*
X71923Y59240D01*
X72365Y58664D01*
X72941Y58223D01*
X73611Y57945D01*
X74331Y57850D01*
X75050Y57945D01*
X75721Y58223D01*
X76296Y58664D01*
X76738Y59240D01*
X77016Y59911D01*
X77110Y60630D01*
Y62998D01*
X81189Y67077D01*
X81732Y66912D01*
X81773Y66706D01*
X82077Y66251D01*
X85331Y62998D01*
Y60630D01*
X85425Y59911D01*
X85703Y59240D01*
X86145Y58664D01*
X86720Y58223D01*
X87391Y57945D01*
X88110Y57850D01*
X88830Y57945D01*
X89500Y58223D01*
X90076Y58664D01*
X90517Y59240D01*
X90795Y59911D01*
X90890Y60630D01*
Y63779D01*
X90795Y64499D01*
X90517Y65169D01*
X90076Y65745D01*
X89500Y66187D01*
X88830Y66465D01*
X88110Y66559D01*
X87391Y66465D01*
X86720Y66187D01*
X86378Y65924D01*
X84476Y67826D01*
Y110048D01*
X114755Y140327D01*
X164758D01*
X165296Y140434D01*
X165751Y140739D01*
X195875Y170863D01*
X196180Y171318D01*
X196287Y171856D01*
Y187692D01*
X196669Y187850D01*
X197409Y188418D01*
X197977Y189158D01*
X198334Y190020D01*
X198456Y190945D01*
X198334Y191870D01*
X197977Y192732D01*
X197409Y193472D01*
X196669Y194040D01*
X195807Y194397D01*
X194882Y194519D01*
D02*
G37*
G36*
X340551Y192766D02*
X339061Y192570D01*
X337672Y191994D01*
X336480Y191079D01*
X335565Y189887D01*
X334990Y188498D01*
X334793Y187008D01*
X334990Y185518D01*
X335565Y184129D01*
X336480Y182936D01*
X337672Y182021D01*
X339061Y181446D01*
X340551Y181250D01*
X342041Y181446D01*
X343430Y182021D01*
X344623Y182936D01*
X345538Y184129D01*
X346113Y185518D01*
X346309Y187008D01*
X346113Y188498D01*
X345538Y189887D01*
X344623Y191079D01*
X343430Y191994D01*
X342041Y192570D01*
X340551Y192766D01*
D02*
G37*
G36*
X668504Y151772D02*
X645079D01*
Y146063D01*
X668504D01*
Y151772D01*
D02*
G37*
G36*
X895669Y149803D02*
X893898D01*
Y140157D01*
X895669D01*
Y149803D01*
D02*
G37*
G36*
X693504Y144488D02*
X670079D01*
Y138779D01*
X693504D01*
Y144488D01*
D02*
G37*
G36*
X925000Y149803D02*
X923228D01*
Y140157D01*
X925000D01*
Y149803D01*
D02*
G37*
G36*
X872047Y197680D02*
X870349Y197512D01*
X868717Y197017D01*
X867212Y196213D01*
X865893Y195131D01*
X864811Y193812D01*
X864006Y192307D01*
X863511Y190674D01*
X863344Y188976D01*
Y171552D01*
X861959Y170627D01*
X860330Y169198D01*
X858901Y167568D01*
X857696Y165766D01*
X856738Y163822D01*
X856041Y161769D01*
X855618Y159643D01*
X855476Y157480D01*
X855618Y155317D01*
X856041Y153191D01*
X856738Y151139D01*
X857696Y149195D01*
X858901Y147393D01*
X860330Y145763D01*
X861959Y144334D01*
X863762Y143130D01*
X865706Y142171D01*
X867758Y141474D01*
X869884Y141051D01*
X872047Y140909D01*
X874210Y141051D01*
X876336Y141474D01*
X878389Y142171D01*
X880333Y143130D01*
X882135Y144334D01*
X883765Y145763D01*
X885194Y147393D01*
X886398Y149195D01*
X887357Y151139D01*
X888054Y153191D01*
X888476Y155317D01*
X888618Y157480D01*
X888476Y159643D01*
X888054Y161769D01*
X887357Y163822D01*
X886398Y165766D01*
X885194Y167568D01*
X883765Y169198D01*
X882135Y170627D01*
X880750Y171552D01*
Y188976D01*
X880583Y190674D01*
X880088Y192307D01*
X879284Y193812D01*
X878201Y195131D01*
X876882Y196213D01*
X875378Y197017D01*
X873745Y197512D01*
X872047Y197680D01*
D02*
G37*
G36*
X80709D02*
X79011Y197512D01*
X77378Y197017D01*
X75873Y196213D01*
X74555Y195131D01*
X73472Y193812D01*
X72668Y192307D01*
X72173Y190674D01*
X72005Y188976D01*
Y171552D01*
X70621Y170627D01*
X68991Y169198D01*
X67562Y167568D01*
X66358Y165766D01*
X65399Y163822D01*
X64702Y161769D01*
X64280Y159643D01*
X64138Y157480D01*
X64280Y155317D01*
X64702Y153191D01*
X65399Y151139D01*
X66358Y149195D01*
X67562Y147393D01*
X68991Y145763D01*
X70621Y144334D01*
X72423Y143130D01*
X74367Y142171D01*
X76420Y141474D01*
X78546Y141051D01*
X80709Y140909D01*
X82872Y141051D01*
X84997Y141474D01*
X87050Y142171D01*
X88994Y143130D01*
X90796Y144334D01*
X92426Y145763D01*
X93855Y147393D01*
X95060Y149195D01*
X96018Y151139D01*
X96715Y153191D01*
X97138Y155317D01*
X97280Y157480D01*
X97138Y159643D01*
X96715Y161769D01*
X96018Y163822D01*
X95060Y165766D01*
X93855Y167568D01*
X92426Y169198D01*
X90796Y170627D01*
X89412Y171552D01*
Y188976D01*
X89245Y190674D01*
X88749Y192307D01*
X87945Y193812D01*
X86863Y195131D01*
X85544Y196213D01*
X84039Y197017D01*
X82407Y197512D01*
X80709Y197680D01*
D02*
G37*
G36*
X801575Y107677D02*
X799016D01*
Y105807D01*
X801575D01*
Y107677D01*
D02*
G37*
G36*
X827658Y67161D02*
X827482Y67126D01*
X825417D01*
X825439Y67016D01*
X825471Y66654D01*
X825254Y66329D01*
X825178Y65945D01*
Y64764D01*
X825254Y64380D01*
X825471Y64054D01*
X825797Y63837D01*
X825851Y63826D01*
Y60827D01*
X825689D01*
Y45079D01*
X831791D01*
Y50131D01*
X831890Y50591D01*
X841339D01*
Y60039D01*
X831890D01*
X831791Y60499D01*
Y60827D01*
X829464D01*
Y63826D01*
X829518Y63837D01*
X829843Y64054D01*
X830061Y64380D01*
X830137Y64764D01*
Y65945D01*
X830061Y66329D01*
X829844Y66654D01*
X829876Y67016D01*
X829897Y67126D01*
X827833D01*
X827658Y67161D01*
D02*
G37*
G36*
X151181Y47047D02*
X148622D01*
Y45177D01*
X151181D01*
Y47047D01*
D02*
G37*
G36*
X693504Y50787D02*
X670079D01*
Y45079D01*
X693504D01*
Y50787D01*
D02*
G37*
G36*
X159055Y42618D02*
X157283D01*
Y40945D01*
X159055D01*
Y42618D01*
D02*
G37*
G36*
X668504Y50787D02*
X645079D01*
Y45079D01*
X668504D01*
Y50787D01*
D02*
G37*
G36*
X151181Y50492D02*
X148622D01*
Y48622D01*
X151181D01*
Y50492D01*
D02*
G37*
G36*
X155315D02*
X152756D01*
Y48622D01*
X155315D01*
Y50492D01*
D02*
G37*
G36*
X118307Y49606D02*
X115748D01*
Y47736D01*
X118307D01*
Y49606D01*
D02*
G37*
G36*
X155315Y47047D02*
X152756D01*
Y45177D01*
X155315D01*
Y47047D01*
D02*
G37*
G36*
X114173Y49606D02*
X111614D01*
Y47736D01*
X114173D01*
Y49606D01*
D02*
G37*
G36*
X162402Y39370D02*
X160630D01*
Y37697D01*
X162402D01*
Y39370D01*
D02*
G37*
G36*
X818898Y116190D02*
X818178Y116095D01*
X817508Y115817D01*
X816932Y115376D01*
X816490Y114800D01*
X816213Y114130D01*
X816118Y113410D01*
X816213Y112691D01*
X816490Y112020D01*
X816932Y111445D01*
X817508Y111003D01*
X817693Y110926D01*
Y108484D01*
X817323D01*
X816939Y108407D01*
X816613Y108190D01*
X816396Y107864D01*
X816319Y107480D01*
Y106299D01*
X816396Y105915D01*
X816613Y105590D01*
X816939Y105372D01*
X817323Y105296D01*
X820276D01*
X820660Y105372D01*
X820985Y105590D01*
X821203Y105915D01*
X821279Y106299D01*
Y107480D01*
X821203Y107864D01*
X820985Y108190D01*
X820660Y108407D01*
X820276Y108484D01*
X820102D01*
Y110926D01*
X820288Y111003D01*
X820863Y111445D01*
X821305Y112020D01*
X821583Y112691D01*
X821677Y113410D01*
X821583Y114130D01*
X821305Y114800D01*
X820863Y115376D01*
X820288Y115817D01*
X819617Y116095D01*
X818898Y116190D01*
D02*
G37*
G36*
X840158Y107677D02*
X837598D01*
Y105807D01*
X840158D01*
Y107677D01*
D02*
G37*
G36*
X162402Y25591D02*
X160630D01*
Y23917D01*
X162402D01*
Y25591D01*
D02*
G37*
G36*
X159055D02*
X157283D01*
Y23917D01*
X159055D01*
Y25591D01*
D02*
G37*
G36*
X175591Y29035D02*
X170079D01*
Y25609D01*
X169598Y25128D01*
X168898Y25221D01*
Y29035D01*
X163386D01*
Y23720D01*
X165631D01*
X166210Y23142D01*
X166118Y22441D01*
X166213Y21722D01*
X166490Y21051D01*
X166932Y20475D01*
X167508Y20034D01*
X168178Y19756D01*
X168898Y19661D01*
X169617Y19756D01*
X170288Y20034D01*
X170863Y20475D01*
X171305Y21051D01*
X171583Y21722D01*
X171677Y22441D01*
X171585Y23142D01*
X172164Y23720D01*
X175591D01*
Y29035D01*
D02*
G37*
G36*
X162402Y28839D02*
X160630D01*
Y27165D01*
X162402D01*
Y28839D01*
D02*
G37*
G36*
X159055Y39370D02*
X157283D01*
Y37697D01*
X159055D01*
Y39370D01*
D02*
G37*
G36*
X159055Y28839D02*
X157283D01*
Y27165D01*
X159055D01*
Y28839D01*
D02*
G37*
G36*
X806102Y111122D02*
X805709Y111122D01*
X805602Y111122D01*
X803150D01*
Y108465D01*
Y105807D01*
X805602D01*
X805709Y105807D01*
X806102Y105807D01*
X806209Y105807D01*
X808661D01*
Y108465D01*
Y111122D01*
X806209D01*
X806102Y111122D01*
D02*
G37*
%LPD*%
G36*
X318891Y94015D02*
X318851Y93984D01*
X318283Y93244D01*
X317926Y92382D01*
X317908Y92244D01*
X321378D01*
Y91457D01*
X322165D01*
Y87986D01*
X322303Y88005D01*
X323165Y88362D01*
X323905Y88930D01*
X324303Y89448D01*
X324803Y89279D01*
Y83548D01*
X324682Y82940D01*
X324445Y82366D01*
X324100Y81850D01*
X323661Y81412D01*
X323145Y81067D01*
X322572Y80830D01*
X321964Y80709D01*
X311107D01*
X310499Y80830D01*
X309925Y81067D01*
X309410Y81412D01*
X308971Y81850D01*
X308626Y82366D01*
X308389Y82940D01*
X308268Y83548D01*
Y88868D01*
X308768Y89038D01*
X308851Y88930D01*
X309591Y88362D01*
X310453Y88005D01*
X310591Y87986D01*
Y91457D01*
X311378D01*
Y92244D01*
X314848D01*
X314830Y92382D01*
X314473Y93244D01*
X313905Y93984D01*
X313865Y94015D01*
X314025Y94488D01*
X318730D01*
X318891Y94015D01*
D02*
G37*
G36*
X176658Y121165D02*
X170385Y114891D01*
X170080Y114435D01*
X169973Y113898D01*
Y104923D01*
X169492Y104724D01*
X168710Y104124D01*
X168111Y103343D01*
X167734Y102433D01*
X167605Y101457D01*
X167734Y100480D01*
X168111Y99571D01*
X168710Y98789D01*
X169492Y98190D01*
X170402Y97813D01*
X171378Y97684D01*
X172354Y97813D01*
X173264Y98190D01*
X174046Y98789D01*
X174645Y99571D01*
X175022Y100480D01*
X175150Y101457D01*
X175022Y102433D01*
X174645Y103343D01*
X174046Y104124D01*
X173264Y104724D01*
X172783Y104923D01*
Y113316D01*
X179125Y119658D01*
X183947D01*
X184138Y119196D01*
X180385Y115442D01*
X180080Y114987D01*
X179973Y114449D01*
Y104923D01*
X179492Y104724D01*
X178710Y104124D01*
X178111Y103343D01*
X177734Y102433D01*
X177605Y101457D01*
X177734Y100480D01*
X178111Y99571D01*
X178710Y98789D01*
X179492Y98190D01*
X180402Y97813D01*
X181378Y97684D01*
X182354Y97813D01*
X183264Y98190D01*
X184046Y98789D01*
X184645Y99571D01*
X185022Y100480D01*
X185150Y101457D01*
X185022Y102433D01*
X184645Y103343D01*
X184046Y104124D01*
X183264Y104724D01*
X182783Y104923D01*
Y113867D01*
X186606Y117690D01*
X193790D01*
X193981Y117228D01*
X190384Y113631D01*
X190080Y113175D01*
X189973Y112638D01*
Y104923D01*
X189492Y104724D01*
X188710Y104124D01*
X188111Y103343D01*
X187734Y102433D01*
X187606Y101457D01*
X187734Y100480D01*
X188111Y99571D01*
X188710Y98789D01*
X189492Y98190D01*
X190402Y97813D01*
X191378Y97684D01*
X192354Y97813D01*
X193264Y98190D01*
X194045Y98789D01*
X194645Y99571D01*
X195022Y100480D01*
X195150Y101457D01*
X195022Y102433D01*
X194645Y103343D01*
X194045Y104124D01*
X193264Y104724D01*
X192783Y104923D01*
Y112056D01*
X196448Y115721D01*
X212294D01*
X212485Y115259D01*
X210384Y113159D01*
X210080Y112703D01*
X209973Y112165D01*
Y104923D01*
X209492Y104724D01*
X208710Y104124D01*
X208111Y103343D01*
X207734Y102433D01*
X207606Y101457D01*
X207734Y100480D01*
X208111Y99571D01*
X208710Y98789D01*
X209492Y98190D01*
X210402Y97813D01*
X211378Y97684D01*
X212354Y97813D01*
X213264Y98190D01*
X214045Y98789D01*
X214645Y99571D01*
X215022Y100480D01*
X215150Y101457D01*
X215022Y102433D01*
X214645Y103343D01*
X214045Y104124D01*
X213264Y104724D01*
X212783Y104923D01*
Y111583D01*
X214952Y113752D01*
X222530D01*
X222721Y113291D01*
X220385Y110954D01*
X220080Y110498D01*
X219973Y109961D01*
Y104923D01*
X219492Y104724D01*
X218710Y104124D01*
X218111Y103343D01*
X217734Y102433D01*
X217605Y101457D01*
X217734Y100480D01*
X218111Y99571D01*
X218710Y98789D01*
X219492Y98190D01*
X220402Y97813D01*
X221378Y97684D01*
X222354Y97813D01*
X223264Y98190D01*
X224045Y98789D01*
X224645Y99571D01*
X225022Y100480D01*
X225150Y101457D01*
X225022Y102433D01*
X224645Y103343D01*
X224045Y104124D01*
X223264Y104724D01*
X222783Y104923D01*
Y109379D01*
X225188Y111784D01*
X231979D01*
X232170Y111322D01*
X230384Y109537D01*
X230080Y109081D01*
X229973Y108543D01*
Y104923D01*
X229492Y104724D01*
X228710Y104124D01*
X228111Y103343D01*
X227734Y102433D01*
X227606Y101457D01*
X227734Y100480D01*
X228111Y99571D01*
X228710Y98789D01*
X229492Y98190D01*
X230402Y97813D01*
X231378Y97684D01*
X232354Y97813D01*
X233264Y98190D01*
X234045Y98789D01*
X234645Y99571D01*
X235022Y100480D01*
X235150Y101457D01*
X235022Y102433D01*
X234645Y103343D01*
X234045Y104124D01*
X233264Y104724D01*
X232783Y104923D01*
Y107961D01*
X234637Y109816D01*
X292215D01*
X292406Y109354D01*
X290385Y107332D01*
X290080Y106876D01*
X289973Y106339D01*
Y104923D01*
X289492Y104724D01*
X288710Y104124D01*
X288111Y103343D01*
X287734Y102433D01*
X287606Y101457D01*
X287734Y100480D01*
X288111Y99571D01*
X288710Y98789D01*
X289492Y98190D01*
X290402Y97813D01*
X291378Y97684D01*
X292354Y97813D01*
X293264Y98190D01*
X294045Y98789D01*
X294645Y99571D01*
X295022Y100480D01*
X295150Y101457D01*
X295022Y102433D01*
X294645Y103343D01*
X294045Y104124D01*
X293264Y104724D01*
X292783Y104923D01*
Y105757D01*
X294873Y107847D01*
X305128D01*
X305319Y107385D01*
X302836Y104901D01*
X302354Y105101D01*
X301378Y105229D01*
X300402Y105101D01*
X299492Y104724D01*
X298710Y104124D01*
X298111Y103343D01*
X297734Y102433D01*
X297605Y101457D01*
X297734Y100480D01*
X298111Y99571D01*
X298710Y98789D01*
X299492Y98190D01*
X300402Y97813D01*
X301378Y97684D01*
X302354Y97813D01*
X303264Y98190D01*
X304045Y98789D01*
X304645Y99571D01*
X305022Y100480D01*
X305150Y101457D01*
X305022Y102433D01*
X304822Y102914D01*
X307787Y105878D01*
X332372D01*
X332564Y105417D01*
X325402Y98255D01*
X324128D01*
X323967Y98729D01*
X324045Y98789D01*
X324645Y99571D01*
X325022Y100480D01*
X325150Y101457D01*
X325022Y102433D01*
X324645Y103343D01*
X324045Y104124D01*
X323264Y104724D01*
X322354Y105101D01*
X321378Y105229D01*
X320402Y105101D01*
X319492Y104724D01*
X318710Y104124D01*
X318111Y103343D01*
X317734Y102433D01*
X317605Y101457D01*
X317734Y100480D01*
X318111Y99571D01*
X318710Y98789D01*
X318789Y98729D01*
X318628Y98255D01*
X316566D01*
X314823Y99999D01*
X315022Y100480D01*
X315150Y101457D01*
X315022Y102433D01*
X314645Y103343D01*
X314045Y104124D01*
X313264Y104724D01*
X312354Y105101D01*
X311378Y105229D01*
X310402Y105101D01*
X309492Y104724D01*
X308710Y104124D01*
X308111Y103343D01*
X307734Y102433D01*
X307606Y101457D01*
X307734Y100480D01*
X308111Y99571D01*
X308710Y98789D01*
X309492Y98190D01*
X310402Y97813D01*
X311378Y97684D01*
X312354Y97813D01*
X312836Y98012D01*
X314991Y95857D01*
X315089Y95791D01*
X314938Y95291D01*
X314025D01*
X313999Y95286D01*
X313973Y95289D01*
X313847Y95255D01*
X313718Y95230D01*
X313696Y95215D01*
X313670Y95208D01*
X313567Y95129D01*
X313458Y95056D01*
X313443Y95034D01*
X313422Y95017D01*
X313356Y94904D01*
X313284Y94795D01*
X312807Y94913D01*
X312354Y95101D01*
X311378Y95229D01*
X310402Y95101D01*
X309492Y94724D01*
X308710Y94124D01*
X308111Y93343D01*
X307734Y92433D01*
X307606Y91457D01*
X307734Y90480D01*
X307889Y90105D01*
X307961Y89610D01*
X307852Y89537D01*
X307738Y89472D01*
X307722Y89451D01*
X307700Y89436D01*
X307627Y89327D01*
X307548Y89223D01*
X307541Y89197D01*
X307526Y89175D01*
X307501Y89047D01*
X307467Y88921D01*
X307470Y88894D01*
X307465Y88868D01*
Y83548D01*
X307480Y83470D01*
Y83391D01*
X307601Y82783D01*
X307632Y82710D01*
X307647Y82632D01*
X307885Y82059D01*
X307928Y81993D01*
X307959Y81920D01*
X308303Y81405D01*
X308359Y81349D01*
X308403Y81283D01*
X308842Y80844D01*
X308908Y80800D01*
X308963Y80744D01*
X309479Y80400D01*
X309553Y80369D01*
X309618Y80325D01*
X310191Y80088D01*
X310269Y80072D01*
X310342Y80042D01*
X310950Y79921D01*
X311030D01*
X311107Y79906D01*
X321964D01*
X322041Y79921D01*
X322120D01*
X322729Y80042D01*
X322802Y80072D01*
X322880Y80088D01*
X323453Y80325D01*
X323518Y80369D01*
X323591Y80400D01*
X324107Y80744D01*
X324163Y80800D01*
X324229Y80844D01*
X324668Y81283D01*
X324712Y81349D01*
X324767Y81405D01*
X325112Y81920D01*
X325143Y81993D01*
X325186Y82059D01*
X325424Y82632D01*
X325439Y82710D01*
X325469Y82783D01*
X325590Y83391D01*
Y83470D01*
X325606Y83548D01*
Y89279D01*
X325601Y89305D01*
X325604Y89331D01*
X325570Y89457D01*
X325545Y89586D01*
X325530Y89608D01*
X325523Y89634D01*
X325444Y89737D01*
X325371Y89846D01*
X325349Y89861D01*
X325332Y89882D01*
X325219Y89948D01*
X325110Y90020D01*
X325022Y90480D01*
X325150Y91457D01*
X325022Y92433D01*
X324645Y93343D01*
X324045Y94124D01*
X323264Y94724D01*
X322729Y94945D01*
X322828Y95445D01*
X325984D01*
X326522Y95552D01*
X326978Y95857D01*
X335031Y103910D01*
X367412D01*
X367603Y103448D01*
X341938Y77783D01*
X299795D01*
X292783Y84795D01*
Y87990D01*
X293264Y88190D01*
X294045Y88789D01*
X294645Y89570D01*
X295022Y90480D01*
X295150Y91457D01*
X295022Y92433D01*
X294645Y93343D01*
X294045Y94124D01*
X293264Y94724D01*
X292354Y95101D01*
X291378Y95229D01*
X290402Y95101D01*
X289492Y94724D01*
X288710Y94124D01*
X288111Y93343D01*
X287734Y92433D01*
X287606Y91457D01*
X287734Y90480D01*
X288111Y89570D01*
X288710Y88789D01*
X289492Y88190D01*
X289973Y87990D01*
Y85474D01*
X289511Y85282D01*
X284814Y89979D01*
X285022Y90480D01*
X285150Y91457D01*
X285022Y92433D01*
X284645Y93343D01*
X284045Y94124D01*
X283264Y94724D01*
X282354Y95101D01*
X281378Y95229D01*
X280402Y95101D01*
X279492Y94724D01*
X278710Y94124D01*
X278111Y93343D01*
X277734Y92433D01*
X277606Y91457D01*
X277734Y90480D01*
X278111Y89570D01*
X278710Y88789D01*
X279492Y88190D01*
X280402Y87813D01*
X281378Y87684D01*
X282354Y87813D01*
X282816Y88004D01*
X296512Y74308D01*
X296321Y73846D01*
X290976D01*
X274822Y89999D01*
X275022Y90480D01*
X275150Y91457D01*
X275022Y92433D01*
X274645Y93343D01*
X274045Y94124D01*
X273264Y94724D01*
X272354Y95101D01*
X271378Y95229D01*
X270402Y95101D01*
X269492Y94724D01*
X268710Y94124D01*
X268111Y93343D01*
X267734Y92433D01*
X267605Y91457D01*
X267734Y90480D01*
X268111Y89570D01*
X268710Y88789D01*
X269492Y88190D01*
X270402Y87813D01*
X271378Y87684D01*
X272354Y87813D01*
X272836Y88012D01*
X288508Y72339D01*
X288317Y71877D01*
X257069D01*
X256970Y72377D01*
X257490Y72593D01*
X258066Y73035D01*
X258507Y73610D01*
X258785Y74281D01*
X258880Y75000D01*
X258785Y75719D01*
X258507Y76390D01*
X258066Y76965D01*
X257490Y77407D01*
X256819Y77685D01*
X256100Y77780D01*
X255381Y77685D01*
X255195Y77608D01*
X252582Y80221D01*
Y87907D01*
X253264Y88190D01*
X254045Y88789D01*
X254645Y89570D01*
X255022Y90480D01*
X255150Y91457D01*
X255022Y92433D01*
X254645Y93343D01*
X254045Y94124D01*
X253264Y94724D01*
X252354Y95101D01*
X251378Y95229D01*
X250402Y95101D01*
X249492Y94724D01*
X248710Y94124D01*
X248111Y93343D01*
X247734Y92433D01*
X247605Y91457D01*
X247734Y90480D01*
X248111Y89570D01*
X248710Y88789D01*
X249492Y88190D01*
X250174Y87907D01*
Y79722D01*
X250174Y79722D01*
X250265Y79261D01*
X250526Y78870D01*
X253492Y75905D01*
X253415Y75719D01*
X253320Y75000D01*
X253415Y74281D01*
X253693Y73610D01*
X254134Y73035D01*
X254710Y72593D01*
X255230Y72377D01*
X255131Y71877D01*
X232944D01*
X214823Y89999D01*
X215022Y90480D01*
X215150Y91457D01*
X215022Y92433D01*
X214645Y93343D01*
X214045Y94124D01*
X213264Y94724D01*
X212354Y95101D01*
X211378Y95229D01*
X210402Y95101D01*
X209492Y94724D01*
X208710Y94124D01*
X208111Y93343D01*
X207734Y92433D01*
X207606Y91457D01*
X207734Y90480D01*
X208111Y89570D01*
X208710Y88789D01*
X209492Y88190D01*
X210402Y87813D01*
X211378Y87684D01*
X212354Y87813D01*
X212836Y88012D01*
X230477Y70371D01*
X230286Y69909D01*
X224913D01*
X204822Y89999D01*
X205022Y90480D01*
X205150Y91457D01*
X205022Y92433D01*
X204645Y93343D01*
X204046Y94124D01*
X203264Y94724D01*
X202354Y95101D01*
X201378Y95229D01*
X200402Y95101D01*
X199492Y94724D01*
X198710Y94124D01*
X198111Y93343D01*
X197734Y92433D01*
X197606Y91457D01*
X197734Y90480D01*
X198111Y89570D01*
X198710Y88789D01*
X199492Y88190D01*
X200402Y87813D01*
X201378Y87684D01*
X202354Y87813D01*
X202836Y88012D01*
X222445Y68402D01*
X222254Y67940D01*
X216881D01*
X194823Y89999D01*
X195022Y90480D01*
X195150Y91457D01*
X195022Y92433D01*
X194645Y93343D01*
X194045Y94124D01*
X193264Y94724D01*
X192354Y95101D01*
X191378Y95229D01*
X190402Y95101D01*
X189492Y94724D01*
X188710Y94124D01*
X188111Y93343D01*
X187734Y92433D01*
X187606Y91457D01*
X187734Y90480D01*
X188111Y89570D01*
X188710Y88789D01*
X189492Y88190D01*
X190402Y87813D01*
X191378Y87684D01*
X192354Y87813D01*
X192836Y88012D01*
X197485Y83363D01*
X197293Y82901D01*
X151920D01*
X144823Y89999D01*
X145022Y90480D01*
X145150Y91457D01*
X145022Y92433D01*
X144645Y93343D01*
X144284Y93814D01*
X144484Y94374D01*
X144565Y94393D01*
X147621Y91337D01*
X147734Y90480D01*
X148111Y89570D01*
X148710Y88789D01*
X149492Y88190D01*
X150402Y87813D01*
X151378Y87684D01*
X152354Y87813D01*
X153264Y88190D01*
X154045Y88789D01*
X154645Y89570D01*
X155022Y90480D01*
X155150Y91457D01*
X155022Y92433D01*
X154645Y93343D01*
X154045Y94124D01*
X153488Y94552D01*
X153658Y95052D01*
X159492D01*
X159591Y94552D01*
X158851Y93984D01*
X158283Y93244D01*
X157926Y92382D01*
X157908Y92244D01*
X164848D01*
X164830Y92382D01*
X164473Y93244D01*
X163905Y93984D01*
X163165Y94552D01*
X163264Y95052D01*
X165796D01*
X167933Y92914D01*
X167734Y92433D01*
X167605Y91457D01*
X167734Y90480D01*
X168111Y89570D01*
X168710Y88789D01*
X169492Y88190D01*
X170402Y87813D01*
X171378Y87684D01*
X172354Y87813D01*
X173264Y88190D01*
X174046Y88789D01*
X174645Y89570D01*
X175022Y90480D01*
X175150Y91457D01*
X175022Y92433D01*
X174645Y93343D01*
X174046Y94124D01*
X173264Y94724D01*
X172354Y95101D01*
X171378Y95229D01*
X170402Y95101D01*
X169920Y94901D01*
X167371Y97450D01*
X166916Y97755D01*
X166378Y97862D01*
X163658D01*
X163488Y98362D01*
X164046Y98789D01*
X164645Y99571D01*
X165022Y100480D01*
X165150Y101457D01*
X165022Y102433D01*
X164645Y103343D01*
X164046Y104124D01*
X163264Y104724D01*
X162783Y104923D01*
Y116308D01*
X168102Y121626D01*
X176467D01*
X176658Y121165D01*
D02*
G37*
G36*
X549912Y87668D02*
X549720Y87382D01*
X549568Y86614D01*
X549720Y85846D01*
X550156Y85195D01*
X550807Y84760D01*
X551575Y84607D01*
X552343Y84760D01*
X552994Y85195D01*
X553429Y85846D01*
X553516Y86282D01*
X554058Y86446D01*
X562364Y78140D01*
X562820Y77836D01*
X563358Y77729D01*
X625447D01*
X625617Y77229D01*
X625534Y77166D01*
X625093Y76590D01*
X624933Y76204D01*
X537700D01*
X537239Y76113D01*
X536848Y75852D01*
X522401Y61404D01*
X273384D01*
X273307Y61590D01*
X272866Y62165D01*
X272290Y62607D01*
X272158Y62662D01*
X272257Y63162D01*
X347412D01*
X347950Y63269D01*
X348405Y63573D01*
X374962Y90131D01*
X547449D01*
X549912Y87668D01*
D02*
G37*
G36*
X605475Y84636D02*
X605931Y84332D01*
X606468Y84225D01*
X668282D01*
X668690Y83725D01*
X668678Y83661D01*
X668769Y83201D01*
X668784Y83178D01*
X668888Y82686D01*
X668584Y82231D01*
X668477Y81693D01*
X668584Y81155D01*
X668882Y80709D01*
X668584Y80262D01*
X668477Y79724D01*
X668584Y79187D01*
X668882Y78740D01*
X668584Y78294D01*
X668477Y77756D01*
X668584Y77218D01*
X668882Y76772D01*
X668584Y76325D01*
X668477Y75787D01*
X668584Y75250D01*
X668888Y74794D01*
X668784Y74302D01*
X668769Y74280D01*
X668678Y73819D01*
X668769Y73358D01*
X669030Y72967D01*
Y72702D01*
X668769Y72311D01*
X668678Y71850D01*
X668769Y71390D01*
X668784Y71367D01*
X668888Y70875D01*
X668584Y70420D01*
X668477Y69882D01*
X668584Y69344D01*
X668664Y69225D01*
X668397Y68725D01*
X636122D01*
X635953Y69225D01*
X635965Y69235D01*
X636407Y69810D01*
X636685Y70481D01*
X636780Y71200D01*
X636685Y71919D01*
X636407Y72590D01*
X635965Y73166D01*
X635390Y73607D01*
X634719Y73885D01*
X634000Y73980D01*
X633281Y73885D01*
X632610Y73607D01*
X632034Y73166D01*
X631593Y72590D01*
X631516Y72404D01*
X629205D01*
X629035Y72904D01*
X629465Y73234D01*
X629907Y73810D01*
X630185Y74481D01*
X630280Y75200D01*
X630185Y75919D01*
X629907Y76590D01*
X629465Y77166D01*
X629383Y77229D01*
X629553Y77729D01*
X637213D01*
X637983Y76959D01*
X638122Y76866D01*
X638345Y76534D01*
X638996Y76099D01*
X639764Y75946D01*
X640532Y76099D01*
X641183Y76534D01*
X641618Y77185D01*
X641771Y77953D01*
X641618Y78721D01*
X641300Y79197D01*
X641527Y79697D01*
X654083D01*
X654093Y79683D01*
X654744Y79248D01*
X655512Y79095D01*
X656280Y79248D01*
X656931Y79683D01*
X657366Y80334D01*
X657519Y81102D01*
X657366Y81870D01*
X656931Y82522D01*
X656280Y82957D01*
X655512Y83109D01*
X654744Y82957D01*
X654093Y82522D01*
X654083Y82507D01*
X564755D01*
X551688Y95574D01*
X551880Y96036D01*
X555520D01*
X560988Y90568D01*
X560985Y90551D01*
X561138Y89783D01*
X561573Y89132D01*
X562224Y88697D01*
X562992Y88544D01*
X563760Y88697D01*
X564411Y89132D01*
X564846Y89783D01*
X564999Y90551D01*
X564846Y91319D01*
X564411Y91970D01*
X563760Y92405D01*
X562992Y92558D01*
X562975Y92555D01*
X557988Y97543D01*
X558179Y98005D01*
X561426D01*
X562957Y96473D01*
X562954Y96457D01*
X563106Y95689D01*
X563541Y95038D01*
X564193Y94602D01*
X564961Y94450D01*
X565729Y94602D01*
X566380Y95038D01*
X566815Y95689D01*
X566968Y96457D01*
X566815Y97225D01*
X566380Y97876D01*
X565729Y98311D01*
X564961Y98464D01*
X564944Y98460D01*
X563893Y99511D01*
X564084Y99973D01*
X572843D01*
X574374Y98442D01*
X574371Y98425D01*
X574524Y97657D01*
X574959Y97006D01*
X575610Y96571D01*
X576378Y96418D01*
X577146Y96571D01*
X577797Y97006D01*
X578232Y97657D01*
X578385Y98425D01*
X578232Y99193D01*
X577797Y99844D01*
X577146Y100279D01*
X576378Y100432D01*
X576361Y100429D01*
X575310Y101480D01*
X575502Y101942D01*
X581111D01*
X583429Y99623D01*
X583426Y99606D01*
X583579Y98838D01*
X584014Y98187D01*
X584665Y97752D01*
X585433Y97599D01*
X586201Y97752D01*
X586852Y98187D01*
X587287Y98838D01*
X587440Y99606D01*
X587287Y100374D01*
X586852Y101025D01*
X586201Y101461D01*
X585433Y101613D01*
X585416Y101610D01*
X583578Y103448D01*
X583770Y103910D01*
X586201D01*
X605475Y84636D01*
D02*
G37*
%LPC*%
G36*
X320590Y90669D02*
X317908D01*
X317926Y90532D01*
X318283Y89670D01*
X318851Y88930D01*
X319591Y88362D01*
X320453Y88005D01*
X320590Y87986D01*
Y90669D01*
D02*
G37*
G36*
X314848D02*
X312165D01*
Y87986D01*
X312303Y88005D01*
X313165Y88362D01*
X313905Y88930D01*
X314473Y89670D01*
X314830Y90532D01*
X314848Y90669D01*
D02*
G37*
G36*
X241378Y105229D02*
X240402Y105101D01*
X239492Y104724D01*
X238710Y104124D01*
X238111Y103343D01*
X237734Y102433D01*
X237606Y101457D01*
X237734Y100480D01*
X238111Y99571D01*
X238710Y98789D01*
X239492Y98190D01*
X240402Y97813D01*
X241378Y97684D01*
X242354Y97813D01*
X243264Y98190D01*
X244045Y98789D01*
X244645Y99571D01*
X245022Y100480D01*
X245150Y101457D01*
X245022Y102433D01*
X244645Y103343D01*
X244045Y104124D01*
X243264Y104724D01*
X242354Y105101D01*
X241378Y105229D01*
D02*
G37*
G36*
X302165Y94927D02*
Y92244D01*
X304848D01*
X304830Y92382D01*
X304473Y93244D01*
X303905Y93984D01*
X303165Y94552D01*
X302303Y94909D01*
X302165Y94927D01*
D02*
G37*
G36*
X261378Y105229D02*
X260402Y105101D01*
X259492Y104724D01*
X258710Y104124D01*
X258111Y103343D01*
X257734Y102433D01*
X257606Y101457D01*
X257734Y100480D01*
X258111Y99571D01*
X258710Y98789D01*
X259492Y98190D01*
X260402Y97813D01*
X261378Y97684D01*
X262354Y97813D01*
X263264Y98190D01*
X264045Y98789D01*
X264645Y99571D01*
X265022Y100480D01*
X265150Y101457D01*
X265022Y102433D01*
X264645Y103343D01*
X264045Y104124D01*
X263264Y104724D01*
X262354Y105101D01*
X261378Y105229D01*
D02*
G37*
G36*
X251378D02*
X250402Y105101D01*
X249492Y104724D01*
X248710Y104124D01*
X248111Y103343D01*
X247734Y102433D01*
X247605Y101457D01*
X247734Y100480D01*
X248111Y99571D01*
X248710Y98789D01*
X249492Y98190D01*
X250402Y97813D01*
X251378Y97684D01*
X252354Y97813D01*
X253264Y98190D01*
X254045Y98789D01*
X254645Y99571D01*
X255022Y100480D01*
X255150Y101457D01*
X255022Y102433D01*
X254645Y103343D01*
X254045Y104124D01*
X253264Y104724D01*
X252354Y105101D01*
X251378Y105229D01*
D02*
G37*
G36*
X260591Y94927D02*
X260453Y94909D01*
X259591Y94552D01*
X258851Y93984D01*
X258283Y93244D01*
X257926Y92382D01*
X257908Y92244D01*
X260591D01*
Y94927D01*
D02*
G37*
G36*
X232165D02*
Y92244D01*
X234848D01*
X234830Y92382D01*
X234473Y93244D01*
X233905Y93984D01*
X233165Y94552D01*
X232303Y94909D01*
X232165Y94927D01*
D02*
G37*
G36*
X300590D02*
X300453Y94909D01*
X299591Y94552D01*
X298851Y93984D01*
X298283Y93244D01*
X297926Y92382D01*
X297908Y92244D01*
X300590D01*
Y94927D01*
D02*
G37*
G36*
X262165D02*
Y92244D01*
X264848D01*
X264830Y92382D01*
X264473Y93244D01*
X263905Y93984D01*
X263165Y94552D01*
X262303Y94909D01*
X262165Y94927D01*
D02*
G37*
G36*
X271654Y108306D02*
X270885Y108153D01*
X270234Y107718D01*
X269799Y107067D01*
X269647Y106299D01*
X269799Y105531D01*
X269936Y105326D01*
X269791Y104848D01*
X269492Y104724D01*
X268710Y104124D01*
X268111Y103343D01*
X267734Y102433D01*
X267605Y101457D01*
X267734Y100480D01*
X268111Y99571D01*
X268710Y98789D01*
X269492Y98190D01*
X270402Y97813D01*
X271378Y97684D01*
X272354Y97813D01*
X273264Y98190D01*
X274045Y98789D01*
X274645Y99571D01*
X275022Y100480D01*
X275150Y101457D01*
X275022Y102433D01*
X274645Y103343D01*
X274045Y104124D01*
X273436Y104592D01*
X273265Y104728D01*
X273316Y105244D01*
X273508Y105531D01*
X273661Y106299D01*
X273508Y107067D01*
X273073Y107718D01*
X272422Y108153D01*
X271654Y108306D01*
D02*
G37*
G36*
X202165Y104927D02*
Y102244D01*
X204848D01*
X204830Y102382D01*
X204473Y103244D01*
X203905Y103984D01*
X203165Y104552D01*
X202303Y104909D01*
X202165Y104927D01*
D02*
G37*
G36*
X200591D02*
X200453Y104909D01*
X199591Y104552D01*
X198851Y103984D01*
X198283Y103244D01*
X197926Y102382D01*
X197908Y102244D01*
X200591D01*
Y104927D01*
D02*
G37*
G36*
X282165D02*
Y102244D01*
X284848D01*
X284830Y102382D01*
X284473Y103244D01*
X283905Y103984D01*
X283165Y104552D01*
X282303Y104909D01*
X282165Y104927D01*
D02*
G37*
G36*
X280591D02*
X280453Y104909D01*
X279591Y104552D01*
X278851Y103984D01*
X278283Y103244D01*
X277926Y102382D01*
X277908Y102244D01*
X280591D01*
Y104927D01*
D02*
G37*
G36*
X204848Y100669D02*
X202165D01*
Y97987D01*
X202303Y98005D01*
X203165Y98362D01*
X203905Y98930D01*
X204473Y99670D01*
X204830Y100532D01*
X204848Y100669D01*
D02*
G37*
G36*
X200591D02*
X197908D01*
X197926Y100532D01*
X198283Y99670D01*
X198851Y98930D01*
X199591Y98362D01*
X200453Y98005D01*
X200591Y97987D01*
Y100669D01*
D02*
G37*
G36*
X284848D02*
X282165D01*
Y97987D01*
X282303Y98005D01*
X283165Y98362D01*
X283905Y98930D01*
X284473Y99670D01*
X284830Y100532D01*
X284848Y100669D01*
D02*
G37*
G36*
X280591D02*
X277908D01*
X277926Y100532D01*
X278283Y99670D01*
X278851Y98930D01*
X279591Y98362D01*
X280453Y98005D01*
X280591Y97987D01*
Y100669D01*
D02*
G37*
G36*
X230591Y94927D02*
X230453Y94909D01*
X229591Y94552D01*
X228851Y93984D01*
X228283Y93244D01*
X227926Y92382D01*
X227908Y92244D01*
X230591D01*
Y94927D01*
D02*
G37*
G36*
X184848Y90669D02*
X182165D01*
Y87986D01*
X182303Y88005D01*
X183165Y88362D01*
X183905Y88930D01*
X184473Y89670D01*
X184830Y90532D01*
X184848Y90669D01*
D02*
G37*
G36*
X180591D02*
X177908D01*
X177926Y90532D01*
X178283Y89670D01*
X178851Y88930D01*
X179591Y88362D01*
X180453Y88005D01*
X180591Y87986D01*
Y90669D01*
D02*
G37*
G36*
X234848D02*
X232165D01*
Y87986D01*
X232303Y88005D01*
X233165Y88362D01*
X233905Y88930D01*
X234473Y89670D01*
X234830Y90532D01*
X234848Y90669D01*
D02*
G37*
G36*
X230591D02*
X227908D01*
X227926Y90532D01*
X228283Y89670D01*
X228851Y88930D01*
X229591Y88362D01*
X230453Y88005D01*
X230591Y87986D01*
Y90669D01*
D02*
G37*
G36*
X221378Y95229D02*
X220402Y95101D01*
X219492Y94724D01*
X218710Y94124D01*
X218111Y93343D01*
X217734Y92433D01*
X217605Y91457D01*
X217734Y90480D01*
X218111Y89570D01*
X218710Y88789D01*
X219492Y88190D01*
X220402Y87813D01*
X221378Y87684D01*
X222354Y87813D01*
X223264Y88190D01*
X224045Y88789D01*
X224645Y89570D01*
X225022Y90480D01*
X225150Y91457D01*
X225022Y92433D01*
X224645Y93343D01*
X224045Y94124D01*
X223264Y94724D01*
X222354Y95101D01*
X221378Y95229D01*
D02*
G37*
G36*
X241378D02*
X240402Y95101D01*
X239492Y94724D01*
X238710Y94124D01*
X238111Y93343D01*
X237734Y92433D01*
X237606Y91457D01*
X237734Y90480D01*
X238111Y89570D01*
X238710Y88789D01*
X239492Y88190D01*
X240174Y87907D01*
Y81922D01*
X240174Y81922D01*
X240265Y81461D01*
X240526Y81071D01*
X243692Y77905D01*
X243615Y77719D01*
X243520Y77000D01*
X243615Y76281D01*
X243893Y75610D01*
X244335Y75034D01*
X244910Y74593D01*
X245581Y74315D01*
X246300Y74220D01*
X247019Y74315D01*
X247690Y74593D01*
X248266Y75034D01*
X248707Y75610D01*
X248985Y76281D01*
X249080Y77000D01*
X248985Y77719D01*
X248707Y78390D01*
X248266Y78966D01*
X247690Y79407D01*
X247019Y79685D01*
X246300Y79780D01*
X245581Y79685D01*
X245395Y79608D01*
X242582Y82421D01*
Y87907D01*
X243264Y88190D01*
X244045Y88789D01*
X244645Y89570D01*
X245022Y90480D01*
X245150Y91457D01*
X245022Y92433D01*
X244645Y93343D01*
X244045Y94124D01*
X243264Y94724D01*
X242354Y95101D01*
X241378Y95229D01*
D02*
G37*
G36*
X164848Y90669D02*
X162165D01*
Y87986D01*
X162303Y88005D01*
X163165Y88362D01*
X163905Y88930D01*
X164473Y89670D01*
X164830Y90532D01*
X164848Y90669D01*
D02*
G37*
G36*
X160591D02*
X157908D01*
X157926Y90532D01*
X158283Y89670D01*
X158851Y88930D01*
X159591Y88362D01*
X160453Y88005D01*
X160591Y87986D01*
Y90669D01*
D02*
G37*
G36*
X260591D02*
X257908D01*
X257926Y90532D01*
X258283Y89670D01*
X258851Y88930D01*
X259591Y88362D01*
X260453Y88005D01*
X260591Y87986D01*
Y90669D01*
D02*
G37*
G36*
X340551Y102215D02*
X339061Y102018D01*
X337672Y101443D01*
X336480Y100528D01*
X335565Y99336D01*
X334990Y97947D01*
X334793Y96457D01*
X334990Y94966D01*
X335565Y93578D01*
X336480Y92385D01*
X337672Y91470D01*
X339061Y90895D01*
X340551Y90699D01*
X342041Y90895D01*
X343430Y91470D01*
X344623Y92385D01*
X345538Y93578D01*
X346113Y94966D01*
X346309Y96457D01*
X346113Y97947D01*
X345538Y99336D01*
X344623Y100528D01*
X343430Y101443D01*
X342041Y102018D01*
X340551Y102215D01*
D02*
G37*
G36*
X182165Y94927D02*
Y92244D01*
X184848D01*
X184830Y92382D01*
X184473Y93244D01*
X183905Y93984D01*
X183165Y94552D01*
X182303Y94909D01*
X182165Y94927D01*
D02*
G37*
G36*
X180591D02*
X180453Y94909D01*
X179591Y94552D01*
X178851Y93984D01*
X178283Y93244D01*
X177926Y92382D01*
X177908Y92244D01*
X180591D01*
Y94927D01*
D02*
G37*
G36*
X300590Y90669D02*
X297908D01*
X297926Y90532D01*
X298283Y89670D01*
X298851Y88930D01*
X299591Y88362D01*
X300453Y88005D01*
X300590Y87986D01*
Y90669D01*
D02*
G37*
G36*
X264848D02*
X262165D01*
Y87986D01*
X262303Y88005D01*
X263165Y88362D01*
X263905Y88930D01*
X264473Y89670D01*
X264830Y90532D01*
X264848Y90669D01*
D02*
G37*
G36*
X304848D02*
X302165D01*
Y87986D01*
X302303Y88005D01*
X303165Y88362D01*
X303905Y88930D01*
X304473Y89670D01*
X304830Y90532D01*
X304848Y90669D01*
D02*
G37*
%LPD*%
D10*
X62900Y36600D02*
G03*
X62598Y36298I0J-302D01*
G01*
Y16535D02*
Y36298D01*
X849606Y64567D02*
X852362Y61811D01*
X849606Y100984D02*
X852362Y98228D01*
X849606Y64567D02*
X855118D01*
X787795Y63386D02*
X788976Y64567D01*
X802362D01*
X797047Y100984D02*
X802362D01*
X787795Y91732D02*
X797047Y100984D01*
X901181Y135031D02*
Y141142D01*
Y135031D02*
X901575Y134637D01*
Y125197D02*
Y134637D01*
X877362Y100984D02*
X901575Y125197D01*
X849606Y100984D02*
X855118D01*
X877362D01*
X831102Y55315D02*
X836614D01*
X828740Y52953D02*
X831102Y55315D01*
X852362D02*
Y61811D01*
X849606Y64567D02*
X849606Y64567D01*
Y100984D02*
X849606Y100984D01*
X852362Y91732D02*
Y98228D01*
X828740Y89370D02*
X831102Y91732D01*
X836614D01*
X671850Y65945D02*
X703150D01*
X547047D02*
X671850D01*
X203543Y54134D02*
X206693D01*
X199213D02*
X203543D01*
X178150Y54134D02*
X179528Y55512D01*
X705118Y63976D02*
X712992D01*
X703150Y65945D02*
X705118Y63976D01*
X529528Y48425D02*
X547047Y65945D01*
X212402Y48425D02*
X529528D01*
X206693Y54134D02*
X212402Y48425D01*
X192520Y54134D02*
X199213D01*
X191142Y55512D02*
X192520Y54134D01*
X191142Y55512D02*
Y64370D01*
X185433Y70079D02*
X191142Y64370D01*
X141732Y70079D02*
X185433D01*
X129528Y57874D02*
X141732Y70079D01*
X114961Y57874D02*
X129528D01*
X110630Y62205D02*
X114961Y57874D01*
X99134Y62205D02*
X110630D01*
D11*
X61417Y7480D02*
G03*
X70472Y16535I0J9055D01*
G01*
X32685Y7346D02*
X41339D01*
X161378Y85158D02*
Y91457D01*
X181378Y85158D02*
Y91457D01*
X131378Y101457D02*
Y107756D01*
X201378Y101457D02*
Y107756D01*
X231378Y85158D02*
Y91457D01*
X261378Y85158D02*
Y91457D01*
X301378Y85158D02*
Y91457D01*
X281378Y101457D02*
Y107756D01*
X47638Y7480D02*
X61417D01*
X321378Y85158D02*
Y85158D01*
D12*
X752756Y57480D02*
D03*
Y51181D02*
D03*
X744882Y57480D02*
D03*
Y51181D02*
D03*
D13*
X896457Y139370D02*
D03*
X922441D02*
D03*
D14*
X818799Y65354D02*
D03*
Y70472D02*
D03*
X827658D02*
D03*
Y67913D02*
D03*
Y65354D02*
D03*
X818799Y101772D02*
D03*
Y106890D02*
D03*
X827658D02*
D03*
Y104331D02*
D03*
Y101772D02*
D03*
D15*
X817126Y52953D02*
D03*
X828740D02*
D03*
X817126Y89370D02*
D03*
X828740D02*
D03*
X191142Y55512D02*
D03*
X179528D02*
D03*
D16*
X852362Y55315D02*
D03*
X836614D02*
D03*
X852362Y91732D02*
D03*
X836614D02*
D03*
D17*
X848032Y64567D02*
D03*
Y72047D02*
D03*
X840945Y64567D02*
D03*
Y72047D02*
D03*
X802362Y64567D02*
D03*
Y72047D02*
D03*
X809449Y64567D02*
D03*
Y72047D02*
D03*
X855118Y64567D02*
D03*
Y72047D02*
D03*
X855118Y100984D02*
D03*
Y108465D02*
D03*
X809449Y100984D02*
D03*
Y108465D02*
D03*
X802362Y100984D02*
D03*
Y108465D02*
D03*
X840945Y100984D02*
D03*
Y108465D02*
D03*
X848032Y100984D02*
D03*
Y108465D02*
D03*
X712992Y63976D02*
D03*
Y56496D02*
D03*
X705118Y63976D02*
D03*
Y56496D02*
D03*
X705118Y79921D02*
D03*
Y72441D02*
D03*
X151969Y55315D02*
D03*
Y47835D02*
D03*
X206693Y54134D02*
D03*
Y61614D02*
D03*
X199213Y54134D02*
D03*
Y61614D02*
D03*
X114961Y57874D02*
D03*
Y50394D02*
D03*
D18*
X179134Y26378D02*
D03*
X172835D02*
D03*
X166142D02*
D03*
X159843D02*
D03*
X166142Y40157D02*
D03*
X159843D02*
D03*
X179134D02*
D03*
X172835D02*
D03*
D19*
X170768Y46654D02*
D03*
X170768Y50394D02*
D03*
X170768Y54134D02*
D03*
X159941D02*
D03*
Y46654D02*
D03*
D20*
X918307Y141732D02*
D03*
X916339D02*
D03*
X914370D02*
D03*
X912402D02*
D03*
X910433D02*
D03*
X908465D02*
D03*
X906496D02*
D03*
X904527D02*
D03*
X902559D02*
D03*
X900591D02*
D03*
D21*
X64488Y62205D02*
D03*
X74331D02*
D03*
X88110D02*
D03*
X99134Y62205D02*
D03*
X70472Y16535D02*
D03*
X62598D02*
D03*
D22*
X32685Y7346D02*
D03*
D23*
X41339Y7480D02*
D03*
X47638D02*
D03*
D24*
X671850Y60039D02*
D03*
Y62008D02*
D03*
Y63976D02*
D03*
Y65945D02*
D03*
Y67913D02*
D03*
Y69882D02*
D03*
Y71850D02*
D03*
Y73819D02*
D03*
Y75787D02*
D03*
Y77756D02*
D03*
Y79724D02*
D03*
Y81693D02*
D03*
Y83661D02*
D03*
Y85630D02*
D03*
Y87598D02*
D03*
Y89567D02*
D03*
Y91535D02*
D03*
Y93504D02*
D03*
Y95472D02*
D03*
Y97441D02*
D03*
Y99410D02*
D03*
Y101378D02*
D03*
Y103347D02*
D03*
Y105315D02*
D03*
Y107283D02*
D03*
Y109252D02*
D03*
Y111221D02*
D03*
Y113189D02*
D03*
Y115157D02*
D03*
Y117126D02*
D03*
Y119095D02*
D03*
Y121063D02*
D03*
Y123031D02*
D03*
Y125000D02*
D03*
Y126969D02*
D03*
Y128937D02*
D03*
Y130905D02*
D03*
Y132874D02*
D03*
Y134843D02*
D03*
Y136811D02*
D03*
D25*
X669291Y51575D02*
D03*
Y145276D02*
D03*
D26*
X131378Y91457D02*
D03*
Y101457D02*
D03*
X141378Y91457D02*
D03*
Y101457D02*
D03*
X151378Y91457D02*
D03*
Y101457D02*
D03*
X161378Y91457D02*
D03*
Y101457D02*
D03*
X171378Y91457D02*
D03*
Y101457D02*
D03*
X181378Y91457D02*
D03*
Y101457D02*
D03*
X191378Y91457D02*
D03*
Y101457D02*
D03*
X201378Y91457D02*
D03*
Y101457D02*
D03*
X211378Y91457D02*
D03*
Y101457D02*
D03*
X221378Y91457D02*
D03*
Y101457D02*
D03*
X231378Y91457D02*
D03*
Y101457D02*
D03*
X241378Y91457D02*
D03*
Y101457D02*
D03*
X251378Y91457D02*
D03*
Y101457D02*
D03*
X261378Y91457D02*
D03*
Y101457D02*
D03*
X271378Y91457D02*
D03*
Y101457D02*
D03*
X281378Y91457D02*
D03*
Y101457D02*
D03*
X291378Y91457D02*
D03*
Y101457D02*
D03*
X301378Y91457D02*
D03*
Y101457D02*
D03*
X311378Y91457D02*
D03*
Y101457D02*
D03*
X321378Y91457D02*
D03*
Y101457D02*
D03*
D27*
X649606Y145276D02*
Y153543D01*
X671850Y87598D02*
X679528D01*
X666732Y83661D02*
X671850D01*
X666929Y83071D02*
Y83465D01*
X666732Y83661D02*
X666929Y83465D01*
X666732Y73819D02*
X671850D01*
X666535Y74016D02*
X666732Y73819D01*
X671850D02*
X676181D01*
X678150Y71850D01*
X671850D02*
X678150D01*
X676772Y120472D02*
X690551D01*
X751968Y39370D02*
X752756Y40157D01*
Y51181D01*
X744882Y40551D02*
X746063Y39370D01*
X744882Y40551D02*
Y51181D01*
X855118Y64567D02*
X857874D01*
X862992Y69685D01*
X904527Y152953D02*
X904724Y153150D01*
X904527Y141732D02*
Y152953D01*
X840945Y64567D02*
X844094Y61417D01*
Y52362D02*
Y61417D01*
Y52362D02*
X848425Y48031D01*
X873622D01*
X912402Y86811D01*
Y141732D01*
X836811Y100984D02*
X840158Y100984D01*
X836811Y64567D02*
X840945Y64567D01*
X830906Y70472D02*
X836811Y64567D01*
X827658Y70472D02*
X830906D01*
X827658Y106890D02*
X830906D01*
X836811Y100984D01*
X174213Y46654D02*
X175591Y45276D01*
X170768Y46654D02*
X174213D01*
X166142Y25197D02*
Y26378D01*
Y25197D02*
X168898Y22441D01*
X172835Y26378D01*
X159941Y46358D02*
Y46654D01*
Y46358D02*
X166142Y40157D01*
X203543Y52362D02*
Y54134D01*
X197638Y46457D02*
X203543Y52362D01*
X185433Y46457D02*
X197638D01*
X179134Y40157D02*
X185433Y46457D01*
X166142Y40157D02*
X172835D01*
X638976Y77953D02*
X639764D01*
X637795Y79134D02*
X638976Y77953D01*
X671850Y69882D02*
X702559D01*
X705118Y72441D01*
X651889Y49214D02*
X654331Y51575D01*
X649606Y47006D02*
X651889Y49214D01*
X74331Y62205D02*
X80709Y68583D01*
X83071Y67244D02*
X88110Y62205D01*
X648032Y155118D02*
X649606Y153543D01*
X677362Y60039D02*
X677559Y60236D01*
X671850Y60039D02*
X677362D01*
X664567Y61811D02*
X664764Y62008D01*
X671850D01*
X666535Y72835D02*
X667520Y71850D01*
X671850D01*
X678150Y83661D02*
X678740Y84252D01*
X671850Y83661D02*
X678150D01*
X676575Y91535D02*
X677559Y92520D01*
X671850Y91535D02*
X676575D01*
X679331Y95472D02*
X684252Y90551D01*
X677953Y106299D02*
X685433D01*
X690354Y110827D02*
X694095Y107087D01*
X674634Y109252D02*
X676209Y110827D01*
X692126Y99606D02*
Y103225D01*
X675450Y107283D02*
X677024Y108858D01*
X686493D02*
X692126Y103225D01*
X677024Y108858D02*
X686493D01*
X676209Y110827D02*
X690354D01*
X676968Y105315D02*
X677953Y106299D01*
X671850Y105315D02*
X676968D01*
X671850Y103347D02*
X678468D01*
X671850Y101378D02*
X679724D01*
X678468Y103347D02*
X678861Y103740D01*
X682480D01*
X679724Y101378D02*
X679921Y101181D01*
X682480Y103740D02*
X683465Y102756D01*
X671850Y107283D02*
X675450D01*
X671850Y109252D02*
X674634D01*
X671850Y107283D02*
X671850Y107283D01*
X679724Y115157D02*
X679921Y114961D01*
X677559Y117717D02*
X685039D01*
X685433Y136221D02*
X686221Y135433D01*
X676378Y136221D02*
X685433D01*
X690551Y120472D02*
X690945Y120079D01*
X675394Y119095D02*
X676772Y120472D01*
X671850Y119095D02*
X675394D01*
X676378Y133465D02*
Y136221D01*
X671850Y132874D02*
X675787D01*
X676378Y133465D01*
X675787Y136811D02*
X676378Y136221D01*
X671850Y136811D02*
X675787D01*
X665551Y121063D02*
X671850D01*
X665354Y120866D02*
X665551Y121063D01*
X158858Y125000D02*
X671850D01*
X660433Y128937D02*
X671850D01*
X625591Y133071D02*
X627559Y135039D01*
X279528Y133071D02*
X625591D01*
X274803Y137795D02*
X279528Y133071D01*
X269291Y137795D02*
X274803D01*
X262598Y131102D02*
X269291Y137795D01*
X157087Y129134D02*
X641339D01*
X158043Y126969D02*
X646654D01*
X167520Y123031D02*
X631693D01*
X178543Y121063D02*
X630877D01*
X186024Y119095D02*
X623425D01*
X195866Y117126D02*
X616339D01*
X214370Y115157D02*
X611220D01*
X224606Y113189D02*
X606890D01*
X234055Y111221D02*
X600984D01*
X275984Y131102D02*
X638583D01*
X272835Y134252D02*
X275984Y131102D01*
X145276D02*
X262598D01*
X126772Y112598D02*
X145276Y131102D01*
X126772Y96063D02*
Y112598D01*
X136221Y98425D02*
X138583Y96063D01*
X136221Y98425D02*
Y108268D01*
X157087Y129134D01*
X146457Y98425D02*
Y115382D01*
Y98425D02*
X148425Y96457D01*
X126772Y96063D02*
X131378Y91457D01*
X671850Y123031D02*
X682087D01*
X687008Y127953D01*
X551575Y86614D02*
Y87992D01*
X548032Y91536D02*
X551575Y87992D01*
X374380Y91536D02*
X548032D01*
X347412Y64567D02*
X374380Y91536D01*
X215484Y64567D02*
X347412D01*
X198555Y81496D02*
X215484Y64567D01*
X151339Y81496D02*
X198555D01*
X141378Y91457D02*
X151339Y81496D01*
X271378Y101457D02*
X271654Y101732D01*
Y106299D01*
X638583Y131102D02*
X639764Y132283D01*
X659449Y127953D02*
X660433Y128937D01*
X657283Y130905D02*
X671850D01*
X654331Y133858D02*
X657283Y130905D01*
X646063Y133858D02*
X654331D01*
X641339Y129134D02*
X646063Y133858D01*
X138583Y96063D02*
X144882D01*
X149488Y91457D01*
X151378D01*
X671850Y113189D02*
X671850Y113189D01*
X660433Y113189D02*
X671850D01*
X657480Y116142D02*
X660433Y113189D01*
X646654Y126969D02*
X649606Y129921D01*
X146457Y115382D02*
X158043Y126969D01*
X148425Y96457D02*
X166378D01*
X171378Y91457D01*
X563358Y79134D02*
X637795D01*
X548988Y93504D02*
X563358Y79134D01*
X671850Y87598D02*
X671850Y87598D01*
X373565Y93504D02*
X548988D01*
X346597Y66535D02*
X373565Y93504D01*
X216299Y66535D02*
X346597D01*
X191378Y91457D02*
X216299Y66535D01*
X671850Y97441D02*
X684449D01*
X689764Y92126D01*
X694488D01*
X671850Y95472D02*
X679331D01*
X564173Y81102D02*
X655512D01*
X549803Y95473D02*
X564173Y81102D01*
X372750Y95473D02*
X549803D01*
X345781Y68504D02*
X372750Y95473D01*
X224331Y68504D02*
X345781D01*
X201378Y91457D02*
X224331Y68504D01*
X556102Y97441D02*
X562992Y90551D01*
X371934Y97441D02*
X556102D01*
X344966Y70473D02*
X371934Y97441D01*
X232362Y70473D02*
X344966D01*
X211378Y91457D02*
X232362Y70473D01*
X671850Y126969D02*
X679724D01*
X679921Y127165D01*
X562008Y99410D02*
X564961Y96457D01*
X371119Y99410D02*
X562008D01*
X344150Y72441D02*
X371119Y99410D01*
X290394Y72441D02*
X344150D01*
X271378Y91457D02*
X290394Y72441D01*
X573425Y101378D02*
X576378Y98425D01*
X370304Y101378D02*
X573425D01*
X581693Y103347D02*
X585433Y99606D01*
X369488Y103347D02*
X581693D01*
X343335Y74410D02*
X370304Y101378D01*
X298397Y74410D02*
X343335D01*
X281378Y91429D02*
X298397Y74410D01*
X281378Y91429D02*
Y91457D01*
X342520Y76378D02*
X369488Y103347D01*
X299213Y76378D02*
X342520D01*
X291378Y84213D02*
X299213Y76378D01*
X291378Y84213D02*
Y91457D01*
X606468Y85630D02*
X671850D01*
X586783Y105315D02*
X606468Y85630D01*
X334449Y105315D02*
X586783D01*
X325984Y96850D02*
X334449Y105315D01*
X315984Y96850D02*
X325984D01*
X311378Y101457D02*
X315984Y96850D01*
X307205Y107283D02*
X587598D01*
X294291Y109252D02*
X595472D01*
X301378Y101457D02*
X307205Y107283D01*
X291378Y106339D02*
X294291Y109252D01*
X231378Y108543D02*
X234055Y111221D01*
X221378Y109961D02*
X224606Y113189D01*
X211378Y112165D02*
X214370Y115157D01*
X191378Y112638D02*
X195866Y117126D01*
X181378Y114449D02*
X186024Y119095D01*
X171378Y113898D02*
X178543Y121063D01*
X161378Y116890D02*
X167520Y123031D01*
X151378Y117520D02*
X158858Y125000D01*
X605315Y89567D02*
X671850D01*
X587598Y107283D02*
X605315Y89567D01*
X595472Y109252D02*
X602362Y102362D01*
X291378Y101457D02*
Y106339D01*
X671850Y117126D02*
X676968D01*
X677559Y117717D01*
X616339Y117126D02*
X617717Y115748D01*
X611220Y115157D02*
X614173Y112205D01*
X600984Y111221D02*
X606299Y105905D01*
X231378Y101457D02*
Y108543D01*
X626575Y93504D02*
X671850D01*
X606890Y113189D02*
X626575Y93504D01*
X221378Y101457D02*
Y109961D01*
X671850Y115157D02*
X679724D01*
X623425Y119095D02*
X641339Y101181D01*
X211378Y101457D02*
Y112165D01*
X663386Y135039D02*
X663583Y134843D01*
X671850D01*
X191378Y101457D02*
Y112638D01*
X181378Y101457D02*
Y114449D01*
X652531Y99410D02*
X671850D01*
X630877Y121063D02*
X652531Y99410D01*
X171378Y101457D02*
Y113898D01*
X631693Y123031D02*
X643504Y111221D01*
X671850D01*
X161378Y101457D02*
Y116890D01*
X151378Y101457D02*
Y117520D01*
X164758Y141732D02*
X194882Y171856D01*
X163779Y144095D02*
X187795Y168110D01*
X114173Y141732D02*
X164758D01*
X113195Y144095D02*
X163779D01*
X80709Y111608D02*
X113195Y144095D01*
X83071Y110630D02*
X114173Y141732D01*
X80709Y68583D02*
Y111608D01*
X83071Y67244D02*
Y110630D01*
X194882Y171856D02*
Y190945D01*
X187795Y168110D02*
Y190945D01*
D28*
X30185Y7346D02*
Y34846D01*
X6185Y34347D02*
Y49847D01*
Y34347D02*
X21685D01*
Y29847D02*
Y34347D01*
X6185Y29847D02*
X21685D01*
X6185Y25346D02*
Y29847D01*
Y25346D02*
X21685D01*
Y20846D02*
Y25346D01*
X6185Y20846D02*
X21685D01*
X6185Y16346D02*
Y20846D01*
Y16346D02*
X21685D01*
Y11846D02*
Y16346D01*
X6185Y11846D02*
X21685D01*
X6185Y7346D02*
Y11846D01*
Y7346D02*
X30185D01*
D29*
X744882Y57480D02*
Y78300D01*
X752756Y57480D02*
Y66929D01*
X818502Y70769D02*
X818799Y70472D01*
X818502Y70769D02*
Y74409D01*
X818504Y74411D02*
Y75197D01*
X818502Y74409D02*
X818504Y74411D01*
X818799Y106890D02*
X818898Y106988D01*
Y113410D01*
X251378Y79722D02*
Y91457D01*
Y79722D02*
X256100Y75000D01*
X270900Y60200D02*
X522900D01*
X537700Y75000D01*
X627300D01*
X627500Y75200D01*
X241378Y81922D02*
Y91457D01*
Y81922D02*
X246300Y77000D01*
X287100Y55400D02*
X524900D01*
X540700Y71200D01*
X634000D01*
D30*
X751968Y39370D02*
X763779D01*
X746063D02*
X751968D01*
X200787D02*
X746063D01*
X787795Y63386D02*
Y91732D01*
X763779Y39370D02*
X787795Y63386D01*
X188976Y39370D02*
X192913D01*
X196850D01*
X200787D01*
D31*
X809449Y100984D02*
X817126Y93307D01*
X802362Y100984D02*
X809449D01*
X827658Y54035D02*
Y65354D01*
Y54035D02*
X828740Y52953D01*
X817126Y63681D02*
X818799Y65354D01*
X802362Y64567D02*
X809449D01*
X817126Y56890D01*
Y52953D02*
Y56890D01*
Y63681D01*
X817126Y93307D02*
Y100098D01*
Y89370D02*
Y93307D01*
Y100098D02*
X818799Y101772D01*
X827658Y90453D02*
X828740Y89370D01*
X827658Y90453D02*
Y101772D01*
X159941Y54134D02*
X159941Y54134D01*
X152756Y54134D02*
X159941D01*
D32*
X908465Y120669D02*
Y141732D01*
X840158Y100000D02*
Y100984D01*
Y100000D02*
X844488Y95669D01*
Y86614D02*
Y95669D01*
Y86614D02*
X849213Y81890D01*
X869685D01*
X908465Y120669D01*
D33*
X179134Y26378D02*
Y33071D01*
X149213D02*
X179134D01*
X182677D01*
X149409Y55315D02*
X151969D01*
X143307Y49213D02*
X149409Y55315D01*
X143307Y38976D02*
Y49213D01*
Y38976D02*
X149213Y33071D01*
X182677D02*
X188976Y39370D01*
X170768Y54134D02*
X178150D01*
D34*
X80709Y177165D02*
D03*
Y157480D02*
D03*
X872047D02*
D03*
Y177165D02*
D03*
X112205Y187008D02*
D03*
Y96457D02*
D03*
X340551D02*
D03*
Y187008D02*
D03*
X30185Y34846D02*
D03*
X744882Y78300D02*
D03*
X752756Y66929D02*
D03*
X818502Y74409D02*
D03*
X818898Y113410D02*
D03*
X862992Y69685D02*
D03*
X904724Y153150D02*
D03*
X175591Y45276D02*
D03*
X168898Y22441D02*
D03*
X316535Y85039D02*
D03*
X311378Y85158D02*
D03*
X200787Y39370D02*
D03*
X196850D02*
D03*
X192913D02*
D03*
X188976D02*
D03*
X321378Y85158D02*
D03*
X256100Y75000D02*
D03*
X270900Y60200D02*
D03*
X627500Y75200D02*
D03*
X246300Y77000D02*
D03*
X287100Y55400D02*
D03*
X634000Y71200D02*
D03*
D35*
X952756Y73543D02*
D03*
X0D02*
D03*
X496063Y207874D02*
D03*
D36*
X187795Y190945D02*
D03*
X194882D02*
D03*
D37*
X679528Y87598D02*
D03*
X935039Y196850D02*
D03*
Y177165D02*
D03*
Y157480D02*
D03*
Y137795D02*
D03*
Y118110D02*
D03*
Y98425D02*
D03*
Y78740D02*
D03*
Y59055D02*
D03*
Y39370D02*
D03*
Y19685D02*
D03*
X915354Y196850D02*
D03*
Y177165D02*
D03*
Y157480D02*
D03*
Y118110D02*
D03*
Y98425D02*
D03*
Y78740D02*
D03*
Y59055D02*
D03*
Y39370D02*
D03*
Y19685D02*
D03*
X895669Y196850D02*
D03*
Y177165D02*
D03*
Y157480D02*
D03*
Y98425D02*
D03*
Y78740D02*
D03*
Y59055D02*
D03*
Y39370D02*
D03*
Y19685D02*
D03*
X875984Y137795D02*
D03*
Y118110D02*
D03*
Y78740D02*
D03*
Y59055D02*
D03*
Y39370D02*
D03*
Y19685D02*
D03*
X856299Y196850D02*
D03*
Y177165D02*
D03*
Y137795D02*
D03*
Y118110D02*
D03*
Y39370D02*
D03*
Y19685D02*
D03*
X836614Y196850D02*
D03*
Y177165D02*
D03*
Y157480D02*
D03*
Y137795D02*
D03*
Y118110D02*
D03*
Y78740D02*
D03*
Y39370D02*
D03*
Y19685D02*
D03*
X816929Y196850D02*
D03*
Y177165D02*
D03*
Y157480D02*
D03*
Y137795D02*
D03*
Y118110D02*
D03*
Y78740D02*
D03*
Y39370D02*
D03*
Y19685D02*
D03*
X797244Y196850D02*
D03*
Y177165D02*
D03*
Y157480D02*
D03*
Y137795D02*
D03*
Y118110D02*
D03*
Y78740D02*
D03*
Y59055D02*
D03*
Y39370D02*
D03*
Y19685D02*
D03*
X777559Y196850D02*
D03*
Y177165D02*
D03*
Y157480D02*
D03*
Y137795D02*
D03*
Y118110D02*
D03*
Y98425D02*
D03*
Y39370D02*
D03*
Y19685D02*
D03*
X757874Y196850D02*
D03*
Y177165D02*
D03*
Y157480D02*
D03*
Y137795D02*
D03*
Y118110D02*
D03*
Y98425D02*
D03*
Y59055D02*
D03*
Y19685D02*
D03*
X738189Y196850D02*
D03*
Y177165D02*
D03*
Y157480D02*
D03*
Y137795D02*
D03*
Y118110D02*
D03*
Y98425D02*
D03*
Y59055D02*
D03*
Y19685D02*
D03*
X718504Y196850D02*
D03*
Y177165D02*
D03*
Y157480D02*
D03*
Y137795D02*
D03*
Y118110D02*
D03*
Y98425D02*
D03*
Y59055D02*
D03*
Y19685D02*
D03*
X698819Y196850D02*
D03*
Y177165D02*
D03*
Y157480D02*
D03*
Y137795D02*
D03*
Y118110D02*
D03*
Y98425D02*
D03*
Y59055D02*
D03*
Y19685D02*
D03*
X679134Y196850D02*
D03*
Y177165D02*
D03*
Y157480D02*
D03*
Y19685D02*
D03*
X659449Y196850D02*
D03*
Y177165D02*
D03*
Y157480D02*
D03*
Y19685D02*
D03*
X639764Y196850D02*
D03*
Y177165D02*
D03*
Y157480D02*
D03*
Y59055D02*
D03*
Y19685D02*
D03*
X620079Y196850D02*
D03*
Y177165D02*
D03*
Y157480D02*
D03*
Y137795D02*
D03*
Y59055D02*
D03*
Y19685D02*
D03*
X600394Y196850D02*
D03*
Y177165D02*
D03*
Y157480D02*
D03*
Y59055D02*
D03*
Y19685D02*
D03*
X580709Y196850D02*
D03*
Y177165D02*
D03*
Y157480D02*
D03*
Y137795D02*
D03*
Y98425D02*
D03*
Y59055D02*
D03*
Y19685D02*
D03*
X561024Y196850D02*
D03*
Y177165D02*
D03*
Y157480D02*
D03*
Y137795D02*
D03*
Y59055D02*
D03*
Y19685D02*
D03*
X541339Y196850D02*
D03*
Y177165D02*
D03*
Y157480D02*
D03*
Y137795D02*
D03*
Y78740D02*
D03*
Y19685D02*
D03*
X521654Y196850D02*
D03*
Y177165D02*
D03*
Y157480D02*
D03*
Y137795D02*
D03*
Y78740D02*
D03*
Y19685D02*
D03*
X501968Y196850D02*
D03*
Y177165D02*
D03*
Y157480D02*
D03*
Y137795D02*
D03*
Y78740D02*
D03*
Y19685D02*
D03*
X482283Y196850D02*
D03*
Y177165D02*
D03*
Y157480D02*
D03*
Y137795D02*
D03*
Y78740D02*
D03*
Y19685D02*
D03*
X462598Y196850D02*
D03*
Y177165D02*
D03*
Y157480D02*
D03*
Y137795D02*
D03*
Y78740D02*
D03*
Y19685D02*
D03*
X442913Y196850D02*
D03*
Y177165D02*
D03*
Y157480D02*
D03*
Y137795D02*
D03*
Y78740D02*
D03*
Y19685D02*
D03*
X423228Y196850D02*
D03*
Y177165D02*
D03*
Y157480D02*
D03*
Y137795D02*
D03*
Y78740D02*
D03*
Y19685D02*
D03*
X403543Y196850D02*
D03*
Y177165D02*
D03*
Y157480D02*
D03*
Y137795D02*
D03*
Y78740D02*
D03*
Y19685D02*
D03*
X383858Y196850D02*
D03*
Y177165D02*
D03*
Y157480D02*
D03*
Y137795D02*
D03*
Y78740D02*
D03*
Y19685D02*
D03*
X364173Y196850D02*
D03*
Y177165D02*
D03*
Y157480D02*
D03*
Y137795D02*
D03*
Y19685D02*
D03*
X344488Y196850D02*
D03*
Y177165D02*
D03*
Y157480D02*
D03*
Y137795D02*
D03*
Y19685D02*
D03*
X324803Y177165D02*
D03*
Y157480D02*
D03*
Y137795D02*
D03*
Y19685D02*
D03*
X305118Y177165D02*
D03*
Y157480D02*
D03*
Y137795D02*
D03*
Y19685D02*
D03*
X285433Y177165D02*
D03*
Y157480D02*
D03*
Y137795D02*
D03*
Y98425D02*
D03*
Y19685D02*
D03*
X265748Y177165D02*
D03*
Y157480D02*
D03*
Y98425D02*
D03*
Y78740D02*
D03*
Y19685D02*
D03*
X246063Y177165D02*
D03*
Y157480D02*
D03*
Y137795D02*
D03*
Y98425D02*
D03*
Y59055D02*
D03*
Y19685D02*
D03*
X226378Y177165D02*
D03*
Y157480D02*
D03*
Y137795D02*
D03*
Y98425D02*
D03*
Y59055D02*
D03*
Y19685D02*
D03*
X206693Y177165D02*
D03*
Y157480D02*
D03*
Y137795D02*
D03*
Y98425D02*
D03*
Y19685D02*
D03*
X187008Y196850D02*
D03*
Y157480D02*
D03*
Y137795D02*
D03*
Y98425D02*
D03*
Y78740D02*
D03*
Y19685D02*
D03*
X167323Y196850D02*
D03*
Y177165D02*
D03*
Y157480D02*
D03*
Y137795D02*
D03*
Y118110D02*
D03*
Y78740D02*
D03*
Y59055D02*
D03*
X147638Y196850D02*
D03*
Y177165D02*
D03*
Y157480D02*
D03*
Y137795D02*
D03*
Y78740D02*
D03*
Y19685D02*
D03*
X127953Y196850D02*
D03*
Y177165D02*
D03*
Y157480D02*
D03*
Y137795D02*
D03*
Y118110D02*
D03*
Y78740D02*
D03*
Y39370D02*
D03*
Y19685D02*
D03*
X108268Y196850D02*
D03*
Y177165D02*
D03*
Y157480D02*
D03*
Y118110D02*
D03*
Y78740D02*
D03*
Y39370D02*
D03*
X88583Y196850D02*
D03*
Y137795D02*
D03*
Y98425D02*
D03*
Y78740D02*
D03*
Y39370D02*
D03*
X68898Y196850D02*
D03*
Y177165D02*
D03*
Y137795D02*
D03*
Y118110D02*
D03*
Y98425D02*
D03*
Y78740D02*
D03*
Y59055D02*
D03*
Y39370D02*
D03*
X49213Y196850D02*
D03*
Y177165D02*
D03*
Y157480D02*
D03*
Y137795D02*
D03*
Y118110D02*
D03*
Y98425D02*
D03*
Y78740D02*
D03*
X29528Y196850D02*
D03*
Y177165D02*
D03*
Y157480D02*
D03*
Y137795D02*
D03*
Y118110D02*
D03*
Y98425D02*
D03*
Y78740D02*
D03*
X9843Y196850D02*
D03*
Y177165D02*
D03*
Y157480D02*
D03*
Y137795D02*
D03*
Y118110D02*
D03*
Y98425D02*
D03*
X639764Y77953D02*
D03*
X684252Y90551D02*
D03*
X679921Y101181D02*
D03*
Y114961D02*
D03*
X683465Y102756D02*
D03*
X665354Y120866D02*
D03*
X627559Y135039D02*
D03*
X687008Y127953D02*
D03*
X551575Y86614D02*
D03*
X271654Y106299D02*
D03*
X272835Y134252D02*
D03*
X639764Y132283D02*
D03*
X659449Y127953D02*
D03*
X657480Y116142D02*
D03*
X649606Y129921D02*
D03*
X694488Y92126D02*
D03*
X655512Y81102D02*
D03*
X562992Y90551D02*
D03*
X679921Y127165D02*
D03*
X564961Y96457D02*
D03*
X692126Y99606D02*
D03*
X576378Y98425D02*
D03*
X694095Y107087D02*
D03*
X585433Y99606D02*
D03*
X602362Y102362D02*
D03*
X685039Y117717D02*
D03*
X617717Y115748D02*
D03*
X614173Y112205D02*
D03*
X606299Y105905D02*
D03*
X663386Y135039D02*
D03*
X641339Y101181D02*
D03*
M02*
