G04 Layer_Color=8388736*
%FSLAX25Y25*%
%MOIN*%
G70*
G01*
G75*
%ADD42R,0.04142X0.04339*%
%ADD43R,0.04339X0.20087*%
G04:AMPARAMS|DCode=44|XSize=19.76mil|YSize=37.48mil|CornerRadius=3.98mil|HoleSize=0mil|Usage=FLASHONLY|Rotation=270.000|XOffset=0mil|YOffset=0mil|HoleType=Round|Shape=RoundedRectangle|*
%AMROUNDEDRECTD44*
21,1,0.01976,0.02953,0,0,270.0*
21,1,0.01181,0.03748,0,0,270.0*
1,1,0.00795,-0.01476,-0.00591*
1,1,0.00795,-0.01476,0.00591*
1,1,0.00795,0.01476,0.00591*
1,1,0.00795,0.01476,-0.00591*
%
%ADD44ROUNDEDRECTD44*%
%ADD45R,0.04929X0.14575*%
%ADD46R,0.08276X0.08276*%
%ADD47R,0.05913X0.04535*%
%ADD48R,0.04339X0.04142*%
G04:AMPARAMS|DCode=49|XSize=27.64mil|YSize=43.39mil|CornerRadius=4.02mil|HoleSize=0mil|Usage=FLASHONLY|Rotation=270.000|XOffset=0mil|YOffset=0mil|HoleType=Round|Shape=RoundedRectangle|*
%AMROUNDEDRECTD49*
21,1,0.02764,0.03535,0,0,270.0*
21,1,0.01961,0.04339,0,0,270.0*
1,1,0.00803,-0.01768,-0.00980*
1,1,0.00803,-0.01768,0.00980*
1,1,0.00803,0.01768,0.00980*
1,1,0.00803,0.01768,-0.00980*
%
%ADD49ROUNDEDRECTD49*%
%ADD50O,0.01583X0.12213*%
%ADD51O,0.04339X0.07488*%
%ADD52O,0.07902X0.02902*%
%ADD53R,0.03945X0.04339*%
%ADD54O,0.05520X0.01583*%
%ADD55R,0.47646X0.12213*%
%ADD56C,0.06307*%
%ADD57C,0.02902*%
%ADD58C,0.04339*%
%ADD59C,0.20087*%
%ADD60C,0.05913*%
D42*
X752756Y57480D02*
D03*
Y51181D02*
D03*
X744882Y57480D02*
D03*
Y51181D02*
D03*
D43*
X896457Y139370D02*
D03*
X922441D02*
D03*
D44*
X818799Y65354D02*
D03*
Y70472D02*
D03*
X827658D02*
D03*
Y67913D02*
D03*
Y65354D02*
D03*
X818799Y101772D02*
D03*
Y106890D02*
D03*
X827658D02*
D03*
Y104331D02*
D03*
Y101772D02*
D03*
D45*
X817126Y52953D02*
D03*
X828740D02*
D03*
X817126Y89370D02*
D03*
X828740D02*
D03*
X191142Y55512D02*
D03*
X179528D02*
D03*
D46*
X852362Y55315D02*
D03*
X836614D02*
D03*
X852362Y91732D02*
D03*
X836614D02*
D03*
D47*
X848032Y64567D02*
D03*
Y72047D02*
D03*
X840945Y64567D02*
D03*
Y72047D02*
D03*
X802362Y64567D02*
D03*
Y72047D02*
D03*
X809449Y64567D02*
D03*
Y72047D02*
D03*
X855118Y64567D02*
D03*
Y72047D02*
D03*
X855118Y100984D02*
D03*
Y108465D02*
D03*
X809449Y100984D02*
D03*
Y108465D02*
D03*
X802362Y100984D02*
D03*
Y108465D02*
D03*
X840945Y100984D02*
D03*
Y108465D02*
D03*
X848032Y100984D02*
D03*
Y108465D02*
D03*
X712992Y63976D02*
D03*
Y56496D02*
D03*
X705118Y63976D02*
D03*
Y56496D02*
D03*
X705118Y79921D02*
D03*
Y72441D02*
D03*
X151969Y55315D02*
D03*
Y47835D02*
D03*
X206693Y54134D02*
D03*
Y61614D02*
D03*
X199213Y54134D02*
D03*
Y61614D02*
D03*
X114961Y57874D02*
D03*
Y50394D02*
D03*
D48*
X179134Y26378D02*
D03*
X172835D02*
D03*
X166142D02*
D03*
X159843D02*
D03*
X166142Y40157D02*
D03*
X159843D02*
D03*
X179134D02*
D03*
X172835D02*
D03*
D49*
X170768Y46654D02*
D03*
X170768Y50394D02*
D03*
X170768Y54134D02*
D03*
X159941D02*
D03*
Y46654D02*
D03*
D50*
X918307Y141732D02*
D03*
X916339D02*
D03*
X914370D02*
D03*
X912402D02*
D03*
X910433D02*
D03*
X908465D02*
D03*
X906496D02*
D03*
X904527D02*
D03*
X902559D02*
D03*
X900591D02*
D03*
D51*
X64488Y62205D02*
D03*
X74331D02*
D03*
X88110D02*
D03*
X99134Y62205D02*
D03*
X70472Y16535D02*
D03*
X62598D02*
D03*
D52*
X32685Y7346D02*
D03*
D53*
X41339Y7480D02*
D03*
X47638D02*
D03*
D54*
X671850Y60039D02*
D03*
Y62008D02*
D03*
Y63976D02*
D03*
Y65945D02*
D03*
Y67913D02*
D03*
Y69882D02*
D03*
Y71850D02*
D03*
Y73819D02*
D03*
Y75787D02*
D03*
Y77756D02*
D03*
Y79724D02*
D03*
Y81693D02*
D03*
Y83661D02*
D03*
Y85630D02*
D03*
Y87598D02*
D03*
Y89567D02*
D03*
Y91535D02*
D03*
Y93504D02*
D03*
Y95472D02*
D03*
Y97441D02*
D03*
Y99410D02*
D03*
Y101378D02*
D03*
Y103347D02*
D03*
Y105315D02*
D03*
Y107283D02*
D03*
Y109252D02*
D03*
Y111221D02*
D03*
Y113189D02*
D03*
Y115157D02*
D03*
Y117126D02*
D03*
Y119095D02*
D03*
Y121063D02*
D03*
Y123031D02*
D03*
Y125000D02*
D03*
Y126969D02*
D03*
Y128937D02*
D03*
Y130905D02*
D03*
Y132874D02*
D03*
Y134843D02*
D03*
Y136811D02*
D03*
D55*
X669291Y51575D02*
D03*
Y145276D02*
D03*
D56*
X131378Y91457D02*
D03*
Y101457D02*
D03*
X141378Y91457D02*
D03*
Y101457D02*
D03*
X151378Y91457D02*
D03*
Y101457D02*
D03*
X161378Y91457D02*
D03*
Y101457D02*
D03*
X171378Y91457D02*
D03*
Y101457D02*
D03*
X181378Y91457D02*
D03*
Y101457D02*
D03*
X191378Y91457D02*
D03*
Y101457D02*
D03*
X201378Y91457D02*
D03*
Y101457D02*
D03*
X211378Y91457D02*
D03*
Y101457D02*
D03*
X221378Y91457D02*
D03*
Y101457D02*
D03*
X231378Y91457D02*
D03*
Y101457D02*
D03*
X241378Y91457D02*
D03*
Y101457D02*
D03*
X251378Y91457D02*
D03*
Y101457D02*
D03*
X261378Y91457D02*
D03*
Y101457D02*
D03*
X271378Y91457D02*
D03*
Y101457D02*
D03*
X281378Y91457D02*
D03*
Y101457D02*
D03*
X291378Y91457D02*
D03*
Y101457D02*
D03*
X301378Y91457D02*
D03*
Y101457D02*
D03*
X311378Y91457D02*
D03*
Y101457D02*
D03*
X321378Y91457D02*
D03*
Y101457D02*
D03*
D57*
X30185Y7346D02*
Y34846D01*
X6185Y34347D02*
Y49847D01*
Y34347D02*
X21685D01*
Y29847D02*
Y34347D01*
X6185Y29847D02*
X21685D01*
X6185Y25346D02*
Y29847D01*
Y25346D02*
X21685D01*
Y20846D02*
Y25346D01*
X6185Y20846D02*
X21685D01*
X6185Y16346D02*
Y20846D01*
Y16346D02*
X21685D01*
Y11846D02*
Y16346D01*
X6185Y11846D02*
X21685D01*
X6185Y7346D02*
Y11846D01*
Y7346D02*
X30185D01*
D58*
X80709Y177165D02*
D03*
Y157480D02*
D03*
X872047D02*
D03*
Y177165D02*
D03*
X112205Y187008D02*
D03*
Y96457D02*
D03*
X340551D02*
D03*
Y187008D02*
D03*
D59*
X952756Y73543D02*
D03*
X0D02*
D03*
X496063Y207874D02*
D03*
D60*
X187795Y190945D02*
D03*
X194882D02*
D03*
M02*
