M48
;Layer_Color=9474304
;FILE_FORMAT=2:5
INCH,TZ
;TYPE=PLATED
T1F00S00C0.01181
T2F00S00C0.01968
T3F00S00C0.03150
T4F00S00C0.12205
;TYPE=NON_PLATED
T5F00S00C0.09843
T7F00S00C0.31496
%
T01
X68898Y39370
X88583
X108268
Y78740
X88583
Y98425
X68898
Y118110
Y137795
X88583
X108268Y157480
Y118110
X49213
Y137795
Y157480
X29528
Y137795
Y118110
Y98425
X49213
Y78740
X68898
Y59055
X29528Y78740
X9843Y98425
Y118110
Y137795
Y157480
X127953
X147638
X167323
X187008
X206693
X226378
X246063
X265748
X272835Y134252
X271654Y106299
X265748Y98425
Y78740
X246063Y98425
X226378
X206693
X187008
Y78740
X167323
Y59055
X147638Y78740
X127953
Y118110
Y137795
X147638
X167323
X187008
X206693
X226378
X246063
Y59055
X226378
Y19685
X246063
X265748
X206693
X187008
X147638
X127953
Y39370
X167323Y118110
X285433Y137795
X305118
X324803
X344488
X364173
X383858
X403543
X423228
Y157480
X403543
X383858
X364173
X344488
X324803
X305118
X285433
Y98425
Y19685
X305118
X324803
X344488
X364173
X383858
X403543
X423228
Y78740
X403543
X383858
X442913
X462598
X482283
X501968
X521654
X541339
X551575Y86614
X562992Y90551
X564961Y96457
X576378Y98425
X580709Y98425
X585433Y99606
X580709Y137795
Y157480
X561024
Y137795
X541339
Y157480
X521654
Y137795
X501968
Y157480
X482283
Y137795
X462598
Y157480
X442913
Y137795
Y19685
X462598
X482283
X501968
X521654
X541339
X561024
X580709
Y59055
X561024
X600394
X620079
X639764
X639764Y77953
X655512Y81102
X679528Y87598
X684252Y90551
X694488Y92126
X692126Y99606
X698819Y98425
X694095Y107087
X683465Y102756
X679921Y101181
Y114961
X685039Y117717
X687008Y127953
X679921Y127165
X665354Y120866
X657480Y116142
X659449Y127953
X663386Y135039
X649606Y129921
X639764Y132283
X627559Y135039
X620079Y137795
Y157480
X639764
X659449
X679134
X698819
X718504
X738189
Y137795
Y118110
Y98425
X718504
Y118110
Y137795
X698819
Y118110
Y59055
X718504
X738189
Y19685
X718504
X698819
X679134
X659449
X639764
X620079
X600394
X602362Y102362
X606299Y105905
X614173Y112205
X617717Y115748
X641339Y101181
X600394Y157480
X757874
X777559
X797244
X816929
X836614
Y137795
X856299
X875984
Y118110
X856299
X836614
X816929
Y137795
X797244
Y118110
X777559
Y137795
X757874
Y118110
Y98425
X777559
X797244Y78740
X816929
X836614
X875984
X895669
Y98425
Y59055
Y39370
Y19685
X875984
Y39370
Y59055
X856299Y39370
Y19685
X836614
Y39370
X816929
Y19685
X797244
Y39370
Y59055
X777559Y39370
Y19685
X757874
Y59055
X895669Y157480
X915354
X935039
Y137795
Y118110
Y98425
Y78740
Y59055
Y39370
Y19685
X915354
Y39370
Y59055
Y78740
Y98425
Y118110
Y177165
X935039
Y196850
X915354
X895669
Y177165
X856299
Y196850
X836614
Y177165
X816929
Y196850
X797244
Y177165
X777559
Y196850
X757874
Y177165
X738189
Y196850
X718504
Y177165
X698819
Y196850
X679134
Y177165
X659449
Y196850
X639764
Y177165
X620079
Y196850
X600394
Y177165
X580709
Y196850
X561024
Y177165
X541339
Y196850
X521654
Y177165
X501968
Y196850
X482283
Y177165
X462598
Y196850
X442913
Y177165
X423228
Y196850
X403543
Y177165
X383858
Y196850
X364173
Y177165
X344488
Y196850
X324803Y177165
X305118
X285433
X265748
X246063
X226378
X206693
X187008Y196850
X167323
Y177165
X147638
Y196850
X127953
Y177165
X108268
Y196850
X88583
X68898
Y177165
X49213
Y196850
X29528
Y177165
X9843
Y196850
T02
X30185Y34846
X168898Y22441
X175591Y45276
X188976Y39370
X192913
X196850
X200787
X246300Y77000
X256100Y75000
X270900Y60200
X287100Y55400
X311378Y85158
X316535Y85039
X321378Y85158
X627500Y75200
X634000Y71200
X744882Y78300
X752756Y66929
X818502Y74409
X818898Y113410
X862992Y69685
X904724Y153150
T03
X187795Y190945
X194882
T04
X0Y73543
X952756
X496063Y207874
T05
X112205Y96457
X340551
Y187008
X112205
T07
X80709Y157480
X872047
M30
